NotoSansSundanese-SemiBold.ufo
<glyph name="hyphen" format="2">
  <advance width="349.45098039215685"/>
  <unicode hex="002D"/>
  <outline>
    <contour>
      <point x="45.490196078431374" y="228.45098039215685" type="line"/>
      <point x="303.96078431372547" y="228.45098039215685" type="line"/>
      <point x="303.96078431372547" y="336.0980392156863" type="line"/>
      <point x="45.490196078431374" y="336.0980392156863" type="line"/>
    </contour>
  </outline>
</glyph>
<glyph name="uni1B80" format="2">
  <unicode hex="1B80"/>
  <outline>
    <contour>
      <point x="-226.98039215686273" y="746.6666666666666" type="curve" smooth="yes"/>
      <point x="-159.19607843137254" y="746.6666666666666"/>
      <point x="-103.50980392156863" y="802.3529411764706"/>
      <point x="-103.50980392156863" y="871.2352941176471" type="curve" smooth="yes"/>
      <point x="-103.50980392156863" y="939.0196078431372"/>
      <point x="-159.19607843137254" y="994.7058823529412"/>
      <point x="-226.98039215686273" y="994.7058823529412" type="curve" smooth="yes"/>
      <point x="-295.8627450980392" y="994.7058823529412"/>
      <point x="-351.0" y="939.0196078431372"/>
      <point x="-351.0" y="871.2352941176471" type="curve" smooth="yes"/>
      <point x="-351.0" y="802.3529411764706"/>
      <point x="-295.8627450980392" y="746.6666666666666"/>
    </contour>
    <contour>
      <point x="-226.98039215686273" y="817.843137254902" type="curve" smooth="yes"/>
      <point x="-257.27450980392155" y="817.843137254902"/>
      <point x="-279.8235294117647" y="840.9411764705883"/>
      <point x="-279.8235294117647" y="871.2352941176471" type="curve" smooth="yes"/>
      <point x="-279.8235294117647" y="900.9803921568628"/>
      <point x="-257.27450980392155" y="922.5294117647059"/>
      <point x="-226.98039215686273" y="922.5294117647059" type="curve" smooth="yes"/>
      <point x="-197.23529411764707" y="922.5294117647059"/>
      <point x="-175.68627450980392" y="900.9803921568628"/>
      <point x="-175.68627450980392" y="871.2352941176471" type="curve" smooth="yes"/>
      <point x="-175.68627450980392" y="840.9411764705883"/>
      <point x="-197.23529411764707" y="817.843137254902"/>
    </contour>
  </outline>
</glyph>
<glyph name="uni1B81" format="2">
  <unicode hex="1B81"/>
  <outline>
    <contour>
      <point x="-229.45098039215685" y="756.0" type="line"/>
      <point x="-166.0" y="756.0" type="line"/>
      <point x="-64.19607843137256" y="930.156862745098" type="line"/>
      <point x="-121.27450980392157" y="963.1960784313726" type="line"/>
      <point x="-196.98039215686273" y="839.686274509804" type="line"/>
      <point x="-264.03921568627453" y="939.0" type="line"/>
      <point x="-332.843137254902" y="939.0" type="line"/>
      <point x="-400.843137254902" y="839.7450980392157" type="line"/>
      <point x="-353.6078431372549" y="806.2549019607843" type="line"/>
      <point x="-307.70588235294116" y="870.0588235294117" type="line"/>
    </contour>
  </outline>
</glyph>
<glyph name="uni1B82" format="2">
  <advance width="407.8627450980392"/>
  <unicode hex="1B82"/>
  <outline>
    <contour>
      <point x="90.01960784313725" y="0.0" type="line"/>
      <point x="176.23529411764707" y="0.0" type="line"/>
      <point x="80.07843137254902" y="284.0" type="line"/>
      <point x="-6.137254901960785" y="284.0" type="line"/>
    </contour>
    <contour>
      <point x="241.49019607843138" y="0.0" type="line"/>
      <point x="327.70588235294116" y="0.0" type="line"/>
      <point x="231.54901960784315" y="284.0" type="line"/>
      <point x="145.33333333333334" y="284.0" type="line"/>
    </contour>
  </outline>
</glyph>
<glyph name="uni1B83" format="2">
  <advance width="885.8235294117648"/>
  <unicode hex="1B83"/>
  <outline>
    <contour>
      <point x="499.19607843137254" y="-14.098039215686274" type="curve" smooth="yes"/>
      <point x="723.156862745098" y="-14.098039215686274"/>
      <point x="822.8039215686274" y="90.17647058823529"/>
      <point x="822.8039215686274" y="233.98039215686273" type="curve" smooth="yes"/>
      <point x="822.8039215686274" y="353.3137254901961"/>
      <point x="711.7647058823529" y="432.98039215686276"/>
      <point x="577.9803921568628" y="432.98039215686276" type="curve"/>
      <point x="810.0588235294117" y="614.6666666666666" type="line"/>
      <point x="819.8039215686274" y="714.0" type="line"/>
      <point x="379.843137254902" y="714.0" type="line"/>
      <point x="342.2156862745098" y="594.9215686274509" type="line"/>
      <point x="619.5490196078431" y="594.9215686274509" type="line"/>
      <point x="416.45098039215685" y="432.98039215686276" type="line"/>
      <point x="385.2156862745098" y="334.72549019607845" type="line"/>
      <point x="497.88235294117646" y="334.72549019607845" type="line" smooth="yes"/>
      <point x="615.7843137254902" y="334.72549019607845"/>
      <point x="681.6274509803922" y="298.6078431372549"/>
      <point x="681.6274509803922" y="233.98039215686273" type="curve" smooth="yes"/>
      <point x="681.6274509803922" y="158.31372549019608"/>
      <point x="619.5294117647059" y="107.43137254901961"/>
      <point x="497.54901960784315" y="107.43137254901961" type="curve" smooth="yes"/>
      <point x="308.29411764705884" y="107.43137254901961"/>
      <point x="194.66666666666666" y="225.66666666666666"/>
      <point x="194.66666666666666" y="403.3333333333333" type="curve" smooth="yes"/>
      <point x="194.66666666666666" y="522.6666666666666"/>
      <point x="230.47058823529412" y="621.0392156862745"/>
      <point x="312.3333333333333" y="736.0" type="curve"/>
      <point x="184.37254901960785" y="736.0" type="line"/>
      <point x="115.11764705882354" y="649.0"/>
      <point x="68.01960784313725" y="519.9019607843137"/>
      <point x="68.01960784313725" y="403.3333333333333" type="curve" smooth="yes"/>
      <point x="68.01960784313725" y="151.7450980392157"/>
      <point x="206.88235294117646" y="-14.098039215686274"/>
    </contour>
  </outline>
</glyph>
<glyph name="uni1B84" format="2">
  <advance width="579.6666666666666"/>
  <unicode hex="1B84"/>
  <outline>
    <contour>
      <point x="-27.490196078431374" y="0.0" type="line"/>
      <point x="460.96078431372547" y="0.0" type="line"/>
      <point x="539.9411764705883" y="238.94117647058823" type="line"/>
      <point x="396.52941176470586" y="238.94117647058823" type="line"/>
      <point x="356.8235294117647" y="122.92156862745098" type="line"/>
      <point x="159.19607843137254" y="122.92156862745098" type="line"/>
      <point x="313.0980392156863" y="591.0784313725491" type="line"/>
      <point x="437.0980392156863" y="591.0784313725491" type="line"/>
      <point x="477.921568627451" y="714.0" type="line"/>
      <point x="208.50980392156862" y="714.0" type="line"/>
    </contour>
  </outline>
</glyph>
<glyph name="uni1B85" format="2">
  <advance width="792.4509803921569"/>
  <unicode hex="1B85"/>
  <outline>
    <contour>
      <point x="82.66666666666667" y="0.0" type="line"/>
      <point x="698.9215686274509" y="0.0" type="line"/>
      <point x="724.6078431372549" y="79.25490196078431" type="line"/>
      <point x="626.7450980392157" y="165.31372549019608" type="line" smooth="yes"/>
      <point x="594.4705882352941" y="192.84313725490196"/>
      <point x="558.6274509803922" y="222.49019607843138"/>
      <point x="558.6274509803922" y="237.64705882352942" type="curve" smooth="yes"/>
      <point x="558.6274509803922" y="249.35294117647058"/>
      <point x="565.1764705882354" y="263.2156862745098"/>
      <point x="604.1764705882354" y="263.2156862745098" type="curve" smooth="yes"/>
      <point x="768.4901960784314" y="263.2156862745098" type="line"/>
      <point x="808.7647058823529" y="383.94117647058823" type="line"/>
      <point x="577.3725490196078" y="383.94117647058823" type="line" smooth="yes"/>
      <point x="457.3137254901961" y="383.94117647058823"/>
      <point x="412.27450980392155" y="330.0980392156863"/>
      <point x="412.27450980392155" y="262.05882352941177" type="curve" smooth="yes"/>
      <point x="412.27450980392155" y="223.54901960784315"/>
      <point x="436.6862745098039" y="189.3921568627451"/>
      <point x="463.03921568627453" y="163.19607843137254" type="curve" smooth="yes"/>
      <point x="507.01960784313724" y="120.1764705882353" type="line"/>
      <point x="274.6470588235294" y="120.1764705882353" type="line"/>
      <point x="470.921568627451" y="714.0" type="line"/>
      <point x="100.19607843137256" y="714.0" type="line"/>
      <point x="59.92156862745098" y="591.0784313725491" type="line"/>
      <point x="277.3921568627451" y="591.0784313725491" type="line"/>
    </contour>
  </outline>
</glyph>
<glyph name="uni1B86" format="2">
  <advance width="911.0"/>
  <unicode hex="1B86"/>
  <outline>
    <contour>
      <point x="503.2549019607843" y="-14.098039215686274" type="curve" smooth="yes"/>
      <point x="734.4313725490196" y="-14.098039215686274"/>
      <point x="840.843137254902" y="90.17647058823529"/>
      <point x="840.843137254902" y="232.33333333333334" type="curve" smooth="yes"/>
      <point x="840.843137254902" y="352.21568627450984"/>
      <point x="724.313725490196" y="425.843137254902"/>
      <point x="588.8823529411765" y="425.843137254902" type="curve"/>
      <point x="616.5490196078431" y="447.7647058823529"/>
      <point x="657.6470588235294" y="463.52941176470586"/>
      <point x="710.8627450980392" y="463.52941176470586" type="curve" smooth="yes"/>
      <point x="780.9215686274509" y="463.52941176470586"/>
      <point x="794.7058823529412" y="408.88235294117646"/>
      <point x="842.0" y="408.88235294117646" type="curve" smooth="yes"/>
      <point x="868.0" y="408.88235294117646"/>
      <point x="886.5490196078431" y="427.62745098039215"/>
      <point x="886.5490196078431" y="452.62745098039215" type="curve" smooth="yes"/>
      <point x="886.5490196078431" y="483.921568627451"/>
      <point x="856.4509803921569" y="523.7254901960785"/>
      <point x="780.7450980392157" y="523.7254901960785" type="curve" smooth="yes"/>
      <point x="745.2549019607843" y="523.7254901960785"/>
      <point x="713.156862745098" y="515.0784313725491"/>
      <point x="689.0980392156863" y="508.1764705882353" type="curve"/>
      <point x="828.0980392156863" y="614.6666666666666" type="line"/>
      <point x="837.843137254902" y="714.0" type="line"/>
      <point x="397.88235294117646" y="714.0" type="line"/>
      <point x="360.2549019607843" y="594.9215686274509" type="line"/>
      <point x="639.2352941176471" y="594.9215686274509" type="line"/>
      <point x="434.4901960784314" y="432.98039215686276" type="line"/>
      <point x="403.2549019607843" y="334.72549019607845" type="line"/>
      <point x="515.9215686274509" y="334.72549019607845" type="line" smooth="yes"/>
      <point x="633.8235294117648" y="334.72549019607845"/>
      <point x="699.6666666666666" y="298.6078431372549"/>
      <point x="699.6666666666666" y="233.98039215686273" type="curve" smooth="yes"/>
      <point x="699.6666666666666" y="158.31372549019608"/>
      <point x="629.9019607843137" y="107.43137254901961"/>
      <point x="501.6078431372549" y="107.43137254901961" type="curve" smooth="yes"/>
      <point x="305.1372549019608" y="107.43137254901961"/>
      <point x="194.66666666666666" y="225.66666666666666"/>
      <point x="194.66666666666666" y="403.3333333333333" type="curve" smooth="yes"/>
      <point x="194.66666666666666" y="520.4117647058823"/>
      <point x="229.5686274509804" y="620.5882352941177"/>
      <point x="312.3333333333333" y="736.0" type="curve"/>
      <point x="184.37254901960785" y="736.0" type="line"/>
      <point x="115.11764705882354" y="648.5490196078431"/>
      <point x="68.01960784313725" y="519.9019607843137"/>
      <point x="68.01960784313725" y="403.3333333333333" type="curve" smooth="yes"/>
      <point x="68.01960784313725" y="151.7450980392157"/>
      <point x="204.62745098039215" y="-14.098039215686274"/>
    </contour>
  </outline>
</glyph>
<glyph name="uni1B87" format="2">
  <advance width="905.5686274509804"/>
  <unicode hex="1B87"/>
  <outline>
    <contour>
      <point x="116.70588235294117" y="0.0" type="line"/>
      <point x="552.6078431372549" y="0.0" type="line"/>
      <point x="620.5686274509804" y="196.62745098039215" type="line" smooth="yes"/>
      <point x="633.5098039215686" y="233.90196078431373"/>
      <point x="644.3137254901961" y="265.1764705882353"/>
      <point x="682.7843137254902" y="265.1764705882353" type="curve" smooth="yes"/>
      <point x="709.6470588235294" y="265.1764705882353"/>
      <point x="718.5490196078431" y="252.01960784313727"/>
      <point x="718.5490196078431" y="231.5686274509804" type="curve" smooth="yes"/>
      <point x="718.5490196078431" y="212.5686274509804"/>
      <point x="711.0" y="187.37254901960785"/>
      <point x="704.4509803921569" y="167.62745098039215" type="curve" smooth="yes"/>
      <point x="651.4901960784314" y="0.0" type="line"/>
      <point x="797.7450980392157" y="0.0" type="line"/>
      <point x="858.7647058823529" y="185.2549019607843" type="line" smooth="yes"/>
      <point x="866.5098039215686" y="208.0392156862745"/>
      <point x="870.156862745098" y="229.72549019607843"/>
      <point x="870.156862745098" y="248.86274509803923" type="curve" smooth="yes"/>
      <point x="870.156862745098" y="336.1764705882353"/>
      <point x="793.7254901960785" y="380.5098039215686"/>
      <point x="700.0784313725491" y="380.5098039215686" type="curve" smooth="yes"/>
      <point x="564.5686274509804" y="380.5098039215686"/>
      <point x="516.2352941176471" y="314.21568627450984"/>
      <point x="489.29411764705884" y="240.13725490196077" type="curve" smooth="yes"/>
      <point x="446.921568627451" y="122.92156862745098" type="line"/>
      <point x="301.0" y="122.92156862745098" type="line"/>
      <point x="507.6078431372549" y="714.0" type="line"/>
      <point x="75.96078431372548" y="714.0" type="line"/>
      <point x="225.13725490196077" y="312.8627450980392" type="line"/>
    </contour>
    <contour>
      <point x="282.2549019607843" y="451.52941176470586" type="line"/>
      <point x="235.49019607843138" y="593.8235294117648" type="line"/>
      <point x="332.0" y="593.8235294117648" type="line"/>
    </contour>
  </outline>
</glyph>
<glyph name="uni1B88" format="2">
  <advance width="795.0"/>
  <unicode hex="1B88"/>
  <outline>
    <contour>
      <point x="407.2549019607843" y="-13.0" type="curve" smooth="yes"/>
      <point x="642.7843137254902" y="-13.0"/>
      <point x="757.8823529411765" y="153.15686274509804"/>
      <point x="757.8823529411765" y="338.5098039215686" type="curve" smooth="yes"/>
      <point x="757.8823529411765" y="392.27450980392155" type="line"/>
      <point x="680.0" y="392.27450980392155" type="line" smooth="yes"/>
      <point x="470.47058823529414" y="392.27450980392155"/>
      <point x="418.45098039215685" y="424.98039215686276"/>
      <point x="418.45098039215685" y="488.2156862745098" type="curve" smooth="yes"/>
      <point x="418.45098039215685" y="573.9215686274509"/>
      <point x="530.2745098039215" y="598.7647058823529"/>
      <point x="690.6470588235294" y="598.7647058823529" type="curve" smooth="yes"/>
      <point x="715.6470588235294" y="598.7647058823529" type="line"/>
      <point x="750.4313725490196" y="714.0" type="line"/>
      <point x="698.2941176470588" y="714.0" type="line" smooth="yes"/>
      <point x="458.78431372549016" y="714.0"/>
      <point x="284.4117647058824" y="662.9803921568628"/>
      <point x="284.4117647058824" y="486.8627450980392" type="curve" smooth="yes"/>
      <point x="284.4117647058824" y="343.921568627451"/>
      <point x="399.70588235294116" y="273.52941176470586"/>
      <point x="609.7647058823529" y="273.52941176470586" type="curve"/>
      <point x="609.7647058823529" y="198.0"/>
      <point x="535.5294117647059" y="105.23529411764707"/>
      <point x="411.0980392156863" y="105.23529411764707" type="curve" smooth="yes"/>
      <point x="251.86274509803923" y="105.23529411764707"/>
      <point x="154.66666666666666" y="228.66666666666666"/>
      <point x="154.66666666666666" y="424.843137254902" type="curve" smooth="yes"/>
      <point x="154.66666666666666" y="459.1372549019608" type="line"/>
      <point x="22.52941176470588" y="459.1372549019608" type="line"/>
      <point x="22.52941176470588" y="407.843137254902" type="line" smooth="yes"/>
      <point x="22.52941176470588" y="194.35294117647058"/>
      <point x="126.86274509803921" y="-13.0"/>
    </contour>
  </outline>
</glyph>
<glyph name="uni1B89" format="2">
  <advance width="871.0"/>
  <unicode hex="1B89"/>
  <outline>
    <contour>
      <point x="499.19607843137254" y="-14.098039215686274" type="curve" smooth="yes"/>
      <point x="734.8235294117648" y="-14.098039215686274"/>
      <point x="822.8039215686274" y="79.37254901960785"/>
      <point x="822.8039215686274" y="200.13725490196077" type="curve" smooth="yes"/>
      <point x="822.8039215686274" y="307.3921568627451"/>
      <point x="732.0784313725491" y="381.54901960784315"/>
      <point x="607.0784313725491" y="381.54901960784315" type="curve"/>
      <point x="801.9411764705883" y="473.921568627451" type="line"/>
      <point x="812.5882352941177" y="579.5686274509804" type="line"/>
      <point x="387.05882352941177" y="579.5686274509804" type="line"/>
      <point x="351.62745098039215" y="465.98039215686276" type="line"/>
      <point x="599.6274509803922" y="465.98039215686276" type="line"/>
      <point x="429.078431372549" y="387.8627450980392" type="line"/>
      <point x="395.5882352941176" y="284.94117647058823" type="line"/>
      <point x="512.313725490196" y="284.94117647058823" type="line" smooth="yes"/>
      <point x="630.2156862745098" y="284.94117647058823"/>
      <point x="681.6274509803922" y="257.62745098039215"/>
      <point x="681.6274509803922" y="200.13725490196077" type="curve" smooth="yes"/>
      <point x="681.6274509803922" y="147.35294117647058"/>
      <point x="622.4509803921569" y="107.43137254901961"/>
      <point x="497.54901960784315" y="107.43137254901961" type="curve" smooth="yes"/>
      <point x="308.29411764705884" y="107.43137254901961"/>
      <point x="194.66666666666666" y="225.66666666666666"/>
      <point x="194.66666666666666" y="403.3333333333333" type="curve" smooth="yes"/>
      <point x="194.66666666666666" y="517.7058823529412"/>
      <point x="228.2156862745098" y="618.7843137254902"/>
      <point x="312.3333333333333" y="736.0" type="curve"/>
      <point x="184.37254901960785" y="736.0" type="line"/>
      <point x="115.11764705882354" y="649.0"/>
      <point x="68.01960784313725" y="519.0"/>
      <point x="68.01960784313725" y="403.3333333333333" type="curve" smooth="yes"/>
      <point x="68.01960784313725" y="151.7450980392157"/>
      <point x="206.88235294117646" y="-14.098039215686274"/>
    </contour>
    <contour>
      <point x="559.7647058823529" y="611.4901960784314" type="line"/>
      <point x="642.2352941176471" y="611.4901960784314" type="line"/>
      <point x="796.7254901960785" y="763.4901960784314" type="line"/>
      <point x="679.0196078431372" y="763.4901960784314" type="line"/>
      <point x="601.0" y="689.8627450980392" type="line"/>
      <point x="522.4313725490196" y="763.4901960784314" type="line"/>
      <point x="404.72549019607845" y="763.4901960784314" type="line"/>
    </contour>
  </outline>
</glyph>
<glyph name="uni1B8A" format="2">
  <advance width="828.686274509804"/>
  <unicode hex="1B8A"/>
  <outline>
    <contour>
      <point x="489.6078431372549" y="0.0" type="line"/>
      <point x="635.2745098039215" y="0.0" type="line"/>
      <point x="873.2745098039215" y="714.0" type="line"/>
      <point x="519.8235294117648" y="714.0" type="line"/>
      <point x="479.0" y="591.0784313725491" type="line"/>
      <point x="688.7843137254902" y="591.0784313725491" type="line"/>
    </contour>
    <contour>
      <point x="69.13725490196079" y="0.0" type="line"/>
      <point x="214.80392156862746" y="0.0" type="line"/>
      <point x="452.80392156862746" y="714.0" type="line"/>
      <point x="99.3529411764706" y="714.0" type="line"/>
      <point x="58.529411764705884" y="591.0784313725491" type="line"/>
      <point x="268.3137254901961" y="591.0784313725491" type="line"/>
    </contour>
  </outline>
</glyph>
<glyph name="uni1B8B" format="2">
  <advance width="893.3333333333334"/>
  <unicode hex="1B8B"/>
  <outline>
    <contour>
      <point x="-33.98039215686275" y="0.0" type="line"/>
      <point x="119.92156862745098" y="0.0" type="line"/>
      <point x="315.6470588235294" y="591.0784313725491" type="line"/>
      <point x="454.94117647058823" y="591.0784313725491" type="line"/>
      <point x="259.21568627450984" y="0.0" type="line"/>
      <point x="413.11764705882354" y="0.0" type="line"/>
      <point x="607.843137254902" y="591.0784313725491" type="line"/>
      <point x="747.1372549019608" y="591.0784313725491" type="line"/>
      <point x="551.4117647058823" y="0.0" type="line"/>
      <point x="706.4117647058823" y="0.0" type="line"/>
      <point x="940.4117647058823" y="714.0" type="line"/>
      <point x="202.01960784313727" y="714.0" type="line"/>
    </contour>
  </outline>
</glyph>
<glyph name="uni1B8C" format="2">
  <advance width="843.2745098039215"/>
  <unicode hex="1B8C"/>
  <outline>
    <contour>
      <point x="83.11764705882354" y="0.0" type="line"/>
      <point x="675.6666666666666" y="0.0" type="line"/>
      <point x="800.0" y="378.45098039215685" type="line"/>
      <point x="492.4117647058824" y="378.45098039215685" type="line"/>
      <point x="451.5882352941176" y="255.52941176470588" type="line"/>
      <point x="609.6274509803922" y="255.52941176470588" type="line"/>
      <point x="565.9411764705883" y="122.92156862745098" type="line"/>
      <point x="276.19607843137254" y="122.92156862745098" type="line"/>
      <point x="471.37254901960785" y="714.0" type="line"/>
      <point x="101.09803921568627" y="714.0" type="line"/>
      <point x="60.8235294117647" y="591.0784313725491" type="line"/>
      <point x="277.84313725490193" y="591.0784313725491" type="line"/>
    </contour>
  </outline>
</glyph>
<glyph name="uni1B8D" format="2">
  <advance width="782.9019607843137"/>
  <unicode hex="1B8D"/>
  <outline>
    <contour>
      <point x="83.11764705882354" y="0.0" type="line"/>
      <point x="743.8823529411765" y="0.0" type="line"/>
      <point x="621.6470588235294" y="377.9019607843137" type="line"/>
      <point x="471.7450980392157" y="377.9019607843137" type="line"/>
      <point x="553.7058823529412" y="122.92156862745098" type="line"/>
      <point x="276.19607843137254" y="122.92156862745098" type="line"/>
      <point x="471.37254901960785" y="714.0" type="line"/>
      <point x="101.09803921568627" y="714.0" type="line"/>
      <point x="60.8235294117647" y="591.0784313725491" type="line"/>
      <point x="277.84313725490193" y="591.0784313725491" type="line"/>
    </contour>
  </outline>
</glyph>
<glyph name="uni1B8E" format="2">
  <advance width="790.6274509803922"/>
  <unicode hex="1B8E"/>
  <outline>
    <contour>
      <point x="445.70588235294116" y="-14.0" type="curve" smooth="yes"/>
      <point x="546.9215686274509" y="-14.0"/>
      <point x="613.2745098039215" y="32.882352941176464"/>
      <point x="664.3137254901961" y="187.0" type="curve" smooth="yes"/>
      <point x="839.3137254901961" y="714.0" type="line"/>
      <point x="691.9019607843137" y="714.0" type="line"/>
      <point x="537.9019607843137" y="249.0" type="line" smooth="yes"/>
      <point x="504.078431372549" y="147.07843137254903"/>
      <point x="480.11764705882354" y="119.92156862745098"/>
      <point x="442.0980392156863" y="119.92156862745098" type="curve" smooth="yes"/>
      <point x="408.19607843137254" y="119.92156862745098"/>
      <point x="367.078431372549" y="144.13725490196077"/>
      <point x="319.4117647058824" y="186.2549019607843" type="curve"/>
      <point x="493.1764705882353" y="714.0" type="line"/>
      <point x="133.07843137254903" y="714.0" type="line"/>
      <point x="91.70588235294117" y="591.0784313725491" type="line"/>
      <point x="308.4313725490196" y="591.0784313725491" type="line"/>
      <point x="198.33333333333334" y="254.72549019607843" type="line"/>
      <point x="175.0392156862745" y="267.27450980392155"/>
      <point x="141.68627450980392" y="276.27450980392155"/>
      <point x="106.74509803921569" y="276.27450980392155" type="curve" smooth="yes"/>
      <point x="20.176470588235293" y="276.27450980392155"/>
      <point x="-45.92156862745098" y="218.80392156862746"/>
      <point x="-45.92156862745098" y="127.50980392156863" type="curve" smooth="yes"/>
      <point x="-45.92156862745098" y="25.392156862745097"/>
      <point x="31.607843137254903" y="-14.098039215686274"/>
      <point x="112.07843137254902" y="-14.098039215686274" type="curve" smooth="yes"/>
      <point x="176.68627450980392" y="-14.098039215686274"/>
      <point x="228.9607843137255" y="11.76470588235294"/>
      <point x="263.0980392156863" y="58.11764705882353" type="curve"/>
      <point x="313.29411764705884" y="19.215686274509803"/>
      <point x="369.15686274509807" y="-14.0"/>
    </contour>
    <contour>
      <point x="103.74509803921569" y="78.2156862745098" type="curve" smooth="yes"/>
      <point x="72.49019607843137" y="78.2156862745098"/>
      <point x="55.03921568627451" y="95.92156862745098"/>
      <point x="55.03921568627451" y="122.62745098039215" type="curve" smooth="yes"/>
      <point x="55.03921568627451" y="152.62745098039215"/>
      <point x="77.94117647058823" y="166.7843137254902"/>
      <point x="105.29411764705883" y="166.7843137254902" type="curve" smooth="yes"/>
      <point x="131.19607843137254" y="166.7843137254902"/>
      <point x="150.7450980392157" y="156.23529411764707"/>
      <point x="166.54901960784315" y="139.7843137254902" type="curve"/>
      <point x="157.90196078431373" y="112.19607843137256"/>
      <point x="139.7058823529412" y="78.2156862745098"/>
    </contour>
  </outline>
</glyph>
<glyph name="uni1B8F" format="2">
  <advance width="965.4313725490197"/>
  <unicode hex="1B8F"/>
  <outline>
    <contour>
      <point x="-20.80392156862745" y="0.0" type="line"/>
      <point x="382.5098039215686" y="0.0" type="line"/>
      <point x="468.921568627451" y="269.1764705882353" type="line"/>
      <point x="561.6274509803922" y="0.0" type="line"/>
      <point x="709.9803921568628" y="0.0" type="line"/>
      <point x="564.4313725490197" y="416.7450980392157" type="line"/>
      <point x="382.19607843137254" y="416.7450980392157" type="line"/>
      <point x="281.21568627450984" y="125.11764705882354" type="line"/>
      <point x="166.33333333333334" y="125.11764705882354" type="line"/>
      <point x="321.1372549019608" y="591.0784313725491" type="line"/>
      <point x="485.6666666666667" y="591.0784313725491" type="line"/>
      <point x="523.1960784313726" y="714.0" type="line"/>
      <point x="214.19607843137254" y="714.0" type="line"/>
    </contour>
    <contour>
      <point x="782.3529411764706" y="0.0" type="line"/>
      <point x="926.4117647058824" y="0.0" type="line"/>
      <point x="780.8627450980392" y="416.7450980392157" type="line"/>
      <point x="634.8039215686274" y="416.7450980392157" type="line"/>
    </contour>
  </outline>
</glyph>
<glyph name="uni1B90" format="2">
  <advance width="897.6274509803922"/>
  <unicode hex="1B90"/>
  <outline>
    <contour>
      <point x="84.2156862745098" y="0.0" type="line"/>
      <point x="525.156862745098" y="0.0" type="line"/>
      <point x="584.3137254901961" y="173.31372549019608" type="line" smooth="yes"/>
      <point x="596.7058823529412" y="210.58823529411765"/>
      <point x="608.0588235294117" y="241.86274509803923"/>
      <point x="646.5294117647059" y="241.86274509803923" type="curve" smooth="yes"/>
      <point x="673.3921568627451" y="241.86274509803923"/>
      <point x="682.2941176470588" y="228.7058823529412"/>
      <point x="682.2941176470588" y="208.2549019607843" type="curve" smooth="yes"/>
      <point x="682.2941176470588" y="189.2549019607843"/>
      <point x="674.2941176470588" y="164.05882352941177"/>
      <point x="668.1960784313726" y="144.31372549019608" type="curve" smooth="yes"/>
      <point x="624.0392156862745" y="0.0" type="line"/>
      <point x="770.7450980392157" y="0.0" type="line"/>
      <point x="822.5098039215686" y="161.94117647058823" type="line" smooth="yes"/>
      <point x="829.7058823529412" y="184.72549019607843"/>
      <point x="833.9019607843137" y="205.9607843137255"/>
      <point x="833.9019607843137" y="225.54901960784315" type="curve" smooth="yes"/>
      <point x="833.9019607843137" y="312.4117647058824"/>
      <point x="757.4705882352941" y="357.19607843137254"/>
      <point x="663.8235294117648" y="357.19607843137254" type="curve" smooth="yes"/>
      <point x="528.3137254901961" y="357.19607843137254"/>
      <point x="479.4313725490196" y="290.9019607843137"/>
      <point x="453.03921568627453" y="216.8235294117647" type="curve" smooth="yes"/>
      <point x="419.47058823529414" y="122.92156862745098" type="line"/>
      <point x="276.843137254902" y="122.92156862745098" type="line"/>
      <point x="472.47058823529414" y="714.0" type="line"/>
      <point x="96.09803921568627" y="714.0" type="line"/>
      <point x="55.8235294117647" y="591.0784313725491" type="line"/>
      <point x="278.94117647058823" y="591.0784313725491" type="line"/>
    </contour>
  </outline>
</glyph>
<glyph name="uni1B91" format="2">
  <advance width="1074.8039215686274"/>
  <unicode hex="1B91"/>
  <outline>
    <contour>
      <point x="57.09803921568627" y="0.0" type="line"/>
      <point x="510.2352941176471" y="0.0" type="line"/>
      <point x="597.0196078431372" y="264.2549019607843" type="line"/>
      <point x="773.3725490196078" y="0.0" type="line"/>
      <point x="884.7843137254902" y="0.0" type="line"/>
      <point x="1122.7843137254902" y="714.0" type="line"/>
      <point x="606.5294117647059" y="714.0" type="line"/>
      <point x="553.0" y="550.5686274509803" type="line"/>
      <point x="696.2156862745098" y="550.5686274509803" type="line"/>
      <point x="712.2156862745098" y="596.5686274509803" type="line"/>
      <point x="938.843137254902" y="596.5686274509803" type="line"/>
      <point x="803.3333333333334" y="195.3921568627451" type="line"/>
      <point x="615.2352941176471" y="474.0" type="line"/>
      <point x="519.5294117647059" y="474.0" type="line"/>
      <point x="402.3529411764706" y="122.92156862745098" type="line"/>
      <point x="242.68627450980392" y="122.92156862745098" type="line"/>
      <point x="437.8627450980392" y="714.0" type="line"/>
      <point x="80.58823529411765" y="714.0" type="line"/>
      <point x="39.764705882352935" y="591.0784313725491" type="line"/>
      <point x="252.27450980392157" y="591.0784313725491" type="line"/>
    </contour>
  </outline>
</glyph>
<glyph name="uni1B92" format="2">
  <advance width="925.2352941176471"/>
  <unicode hex="1B92"/>
  <outline>
    <contour>
      <point x="22.019607843137255" y="0.0" type="line"/>
      <point x="447.9019607843137" y="0.0" type="line"/>
      <point x="583.6274509803922" y="413.078431372549" type="line"/>
      <point x="740.1764705882352" y="413.078431372549" type="line"/>
      <point x="605.4509803921569" y="0.0" type="line"/>
      <point x="752.8627450980392" y="0.0" type="line"/>
      <point x="928.8627450980392" y="536.0" type="line"/>
      <point x="623.9019607843137" y="536.0" type="line"/>
      <point x="681.9019607843137" y="714.0" type="line"/>
      <point x="535.4901960784314" y="714.0" type="line"/>
      <point x="343.3137254901961" y="122.92156862745098" type="line"/>
      <point x="209.2549019607843" y="122.92156862745098" type="line"/>
      <point x="348.4313725490196" y="536.0" type="line"/>
      <point x="62.0" y="536.0" type="line"/>
      <point x="21.176470588235293" y="413.078431372549" type="line"/>
      <point x="161.19607843137254" y="413.078431372549" type="line"/>
    </contour>
  </outline>
</glyph>
<glyph name="uni1B93" format="2">
  <advance width="809.7254901960785"/>
  <unicode hex="1B93"/>
  <outline>
    <contour>
      <point x="-22.0" y="0.0" type="line"/>
      <point x="441.5882352941177" y="0.0" type="line"/>
      <point x="528.5490196078431" y="269.1764705882353" type="line"/>
      <point x="620.8039215686274" y="0.0" type="line"/>
      <point x="770.7058823529412" y="0.0" type="line"/>
      <point x="625.6078431372549" y="416.7450980392157" type="line"/>
      <point x="441.37254901960785" y="416.7450980392157" type="line"/>
      <point x="340.3921568627451" y="125.11764705882354" type="line"/>
      <point x="164.68627450980392" y="125.11764705882354" type="line"/>
      <point x="318.5882352941177" y="591.0784313725491" type="line"/>
      <point x="562.7647058823529" y="591.0784313725491" type="line"/>
      <point x="600.2941176470588" y="714.0" type="line"/>
      <point x="214.0" y="714.0" type="line"/>
    </contour>
  </outline>
</glyph>
<glyph name="uni1B94" format="2">
  <advance width="747.9019607843137"/>
  <unicode hex="1B94"/>
  <outline>
    <contour>
      <point x="152.01960784313727" y="0.0" type="line"/>
      <point x="687.9411764705883" y="0.0" type="line"/>
      <point x="729.8627450980392" y="128.41176470588235" type="line"/>
      <point x="342.9019607843137" y="128.41176470588235" type="line"/>
      <point x="536.9803921568628" y="714.0" type="line"/>
      <point x="102.0" y="714.0" type="line"/>
      <point x="61.72549019607843" y="591.0784313725491" type="line"/>
      <point x="346.7450980392157" y="591.0784313725491" type="line"/>
    </contour>
  </outline>
</glyph>
<glyph name="uni1B95" format="2">
  <advance width="829.2352941176471"/>
  <unicode hex="1B95"/>
  <outline>
    <contour>
      <point x="79.27450980392157" y="0.0" type="line"/>
      <point x="640.7647058823529" y="0.0" type="line"/>
      <point x="876.7647058823529" y="714.0" type="line"/>
      <point x="521.2156862745098" y="714.0" type="line"/>
      <point x="480.3921568627451" y="591.0784313725491" type="line"/>
      <point x="692.0196078431372" y="591.0784313725491" type="line"/>
      <point x="538.6666666666666" y="125.11764705882354" type="line"/>
      <point x="263.01960784313724" y="125.11764705882354" type="line"/>
      <point x="458.19607843137254" y="714.0" type="line"/>
      <point x="104.84313725490196" y="714.0" type="line"/>
      <point x="64.01960784313725" y="591.0784313725491" type="line"/>
      <point x="273.45098039215685" y="591.0784313725491" type="line"/>
    </contour>
  </outline>
</glyph>
<glyph name="uni1B96" format="2">
  <advance width="823.7450980392157"/>
  <unicode hex="1B96"/>
  <outline>
    <contour>
      <point x="73.7843137254902" y="0.0" type="line"/>
      <point x="635.2745098039215" y="0.0" type="line"/>
      <point x="871.2745098039215" y="714.0" type="line"/>
      <point x="728.7058823529412" y="714.0" type="line"/>
      <point x="533.1764705882352" y="125.11764705882354" type="line"/>
      <point x="257.52941176470586" y="125.11764705882354" type="line"/>
      <point x="452.70588235294116" y="714.0" type="line"/>
      <point x="99.3529411764706" y="714.0" type="line"/>
      <point x="58.529411764705884" y="591.0784313725491" type="line"/>
      <point x="267.96078431372547" y="591.0784313725491" type="line"/>
    </contour>
  </outline>
</glyph>
<glyph name="uni1B97" format="2">
  <advance width="722.6666666666666"/>
  <unicode hex="1B97"/>
  <outline>
    <contour>
      <point x="-26.392156862745097" y="0.0" type="line"/>
      <point x="534.1960784313726" y="0.0" type="line"/>
      <point x="770.1960784313726" y="714.0" type="line"/>
      <point x="627.6274509803922" y="714.0" type="line"/>
      <point x="432.0980392156863" y="125.11764705882354" type="line"/>
      <point x="156.0" y="125.11764705882354" type="line"/>
      <point x="351.1764705882353" y="714.0" type="line"/>
      <point x="208.05882352941177" y="714.0" type="line"/>
    </contour>
  </outline>
</glyph>
<glyph name="uni1B98" format="2">
  <advance width="994.7058823529412"/>
  <unicode hex="1B98"/>
  <outline>
    <contour>
      <point x="-26.392156862745097" y="0.0" type="line"/>
      <point x="426.7450980392157" y="0.0" type="line"/>
      <point x="513.5294117647059" y="264.2549019607843" type="line"/>
      <point x="689.8823529411765" y="0.0" type="line"/>
      <point x="801.2941176470588" y="0.0" type="line"/>
      <point x="1039.2941176470588" y="714.0" type="line"/>
      <point x="524.1372549019608" y="714.0" type="line"/>
      <point x="470.6078431372549" y="550.5686274509803" type="line"/>
      <point x="613.8235294117648" y="550.5686274509803" type="line"/>
      <point x="629.8235294117648" y="596.5686274509803" type="line"/>
      <point x="855.3529411764706" y="596.5686274509803" type="line"/>
      <point x="719.843137254902" y="195.3921568627451" type="line"/>
      <point x="531.7450980392157" y="474.0" type="line"/>
      <point x="436.03921568627453" y="474.0" type="line"/>
      <point x="318.8627450980392" y="122.92156862745098" type="line"/>
      <point x="159.19607843137254" y="122.92156862745098" type="line"/>
      <point x="313.6470588235294" y="591.0784313725491" type="line"/>
      <point x="396.21568627450984" y="591.0784313725491" type="line"/>
      <point x="434.94117647058823" y="714.0" type="line"/>
      <point x="208.50980392156862" y="714.0" type="line"/>
    </contour>
  </outline>
</glyph>
<glyph name="uni1B99" format="2">
  <advance width="753.5882352941177"/>
  <unicode hex="1B99"/>
  <outline>
    <contour>
      <point x="69.80392156862744" y="0.0" type="line"/>
      <point x="566.1176470588235" y="0.0" type="line"/>
      <point x="801.1176470588235" y="714.0" type="line"/>
      <point x="98.80392156862744" y="714.0" type="line"/>
      <point x="58.529411764705884" y="591.0784313725491" type="line"/>
      <point x="607.4901960784314" y="591.0784313725491" type="line"/>
      <point x="454.1372549019608" y="124.56862745098039" type="line"/>
      <point x="260.6862745098039" y="124.56862745098039" type="line"/>
      <point x="358.9607843137255" y="417.3921568627451" type="line"/>
      <point x="70.45098039215686" y="417.3921568627451" type="line"/>
      <point x="29.627450980392155" y="295.01960784313724" type="line"/>
      <point x="167.62745098039215" y="295.01960784313724" type="line"/>
    </contour>
  </outline>
</glyph>
<glyph name="uni1B9A" format="2">
  <advance width="958.4901960784314"/>
  <unicode hex="1B9A"/>
  <outline>
    <contour>
      <point x="25.313725490196077" y="0.0" type="line"/>
      <point x="462.1764705882353" y="0.0" type="line"/>
      <point x="542.4509803921569" y="245.92156862745097" type="line"/>
      <point x="638.7058823529412" y="0.0" type="line"/>
      <point x="786.1176470588235" y="0.0" type="line"/>
      <point x="962.1176470588235" y="536.0" type="line"/>
      <point x="815.7058823529412" y="536.0" type="line"/>
      <point x="699.6274509803922" y="183.2156862745098" type="line"/>
      <point x="603.8235294117648" y="432.4901960784314" type="line"/>
      <point x="696.1764705882354" y="714.0" type="line"/>
      <point x="549.7647058823529" y="714.0" type="line"/>
      <point x="357.03921568627453" y="122.92156862745098" type="line"/>
      <point x="210.3529411764706" y="122.92156862745098" type="line"/>
      <point x="350.078431372549" y="536.0" type="line"/>
      <point x="65.29411764705883" y="536.0" type="line"/>
      <point x="21.176470588235293" y="402.6470588235294" type="line"/>
      <point x="161.19607843137254" y="402.6470588235294" type="line"/>
    </contour>
  </outline>
</glyph>
<glyph name="uni1B9B" format="2">
  <advance width="552.5686274509804"/>
  <unicode hex="1B9B"/>
  <outline>
    <contour>
      <point x="204.49019607843138" y="0.0" type="line"/>
      <point x="351.2549019607843" y="0.0" type="line"/>
      <point x="416.2352941176471" y="197.84313725490196" type="line"/>
      <point x="520.2352941176471" y="197.84313725490196" type="line"/>
      <point x="557.7647058823529" y="312.52941176470586" type="line"/>
      <point x="453.7647058823529" y="312.52941176470586" type="line"/>
      <point x="526.6666666666666" y="533.7843137254902" type="line"/>
      <point x="78.37254901960785" y="533.7843137254902" type="line"/>
      <point x="40.294117647058826" y="417.45098039215685" type="line"/>
      <point x="342.8235294117647" y="417.45098039215685" type="line"/>
      <point x="308.0" y="312.52941176470586" type="line"/>
      <point x="88.47058823529412" y="312.52941176470586" type="line"/>
      <point x="50.94117647058823" y="197.84313725490196" type="line"/>
      <point x="270.47058823529414" y="197.84313725490196" type="line"/>
    </contour>
    <contour>
      <point x="54.23529411764706" y="593.8235294117648" type="line"/>
      <point x="546.5294117647059" y="593.8235294117648" type="line"/>
      <point x="586.2549019607843" y="714.0" type="line"/>
      <point x="93.96078431372548" y="714.0" type="line"/>
    </contour>
  </outline>
</glyph>
<glyph name="uni1B9C" format="2">
  <advance width="897.8039215686274"/>
  <unicode hex="1B9C"/>
  <outline>
    <contour>
      <point x="-25.490196078431374" y="0.0" type="line"/>
      <point x="127.41176470588235" y="0.0" type="line"/>
      <point x="321.5882352941177" y="591.0784313725491" type="line"/>
      <point x="434.0980392156863" y="591.0784313725491" type="line"/>
      <point x="237.921568627451" y="0.0" type="line"/>
      <point x="709.7843137254902" y="0.0" type="line"/>
      <point x="944.7843137254902" y="714.0" type="line"/>
      <point x="796.3725490196078" y="714.0" type="line"/>
      <point x="601.6470588235294" y="122.92156862745098" type="line"/>
      <point x="431.0980392156863" y="122.92156862745098" type="line"/>
      <point x="626.8235294117648" y="714.0" type="line"/>
      <point x="208.50980392156862" y="714.0" type="line"/>
    </contour>
  </outline>
</glyph>
<glyph name="uni1B9D" format="2">
  <advance width="721.3333333333334"/>
  <unicode hex="1B9D"/>
  <outline>
    <contour>
      <point x="-26.392156862745097" y="0.0" type="line"/>
      <point x="606.6078431372549" y="0.0" type="line"/>
      <point x="728.1960784313726" y="367.47058823529414" type="line"/>
      <point x="378.6862745098039" y="367.47058823529414" type="line"/>
      <point x="337.8627450980392" y="244.54901960784315" type="line"/>
      <point x="537.8235294117648" y="244.54901960784315" type="line"/>
      <point x="496.88235294117646" y="122.92156862745098" type="line"/>
      <point x="165.78431372549022" y="122.92156862745098" type="line"/>
      <point x="320.2352941176471" y="591.0784313725491" type="line"/>
      <point x="527.6274509803922" y="591.0784313725491" type="line"/>
      <point x="567.3529411764706" y="714.0" type="line"/>
      <point x="209.6078431372549" y="714.0" type="line"/>
    </contour>
  </outline>
</glyph>
<glyph name="uni1B9E" format="2">
  <advance width="831.5882352941177"/>
  <unicode hex="1B9E"/>
  <outline>
    <contour>
      <point x="489.4117647058824" y="0.0" type="line"/>
      <point x="635.8235294117648" y="0.0" type="line"/>
      <point x="727.0" y="274.078431372549" type="line"/>
      <point x="829.1764705882352" y="274.078431372549" type="line"/>
      <point x="870.0" y="397.0" type="line"/>
      <point x="767.8235294117648" y="397.0" type="line"/>
      <point x="873.8235294117648" y="714.0" type="line"/>
      <point x="515.9803921568628" y="714.0" type="line"/>
      <point x="475.156862745098" y="591.0784313725491" type="line"/>
      <point x="688.5882352941177" y="591.0784313725491" type="line"/>
      <point x="622.4117647058823" y="397.0" type="line"/>
      <point x="511.5882352941176" y="397.0" type="line"/>
      <point x="470.7647058823529" y="274.078431372549" type="line"/>
      <point x="581.5882352941177" y="274.078431372549" type="line"/>
    </contour>
    <contour>
      <point x="64.54901960784314" y="0.0" type="line"/>
      <point x="210.9607843137255" y="0.0" type="line"/>
      <point x="302.1372549019608" y="274.078431372549" type="line"/>
      <point x="404.3137254901961" y="274.078431372549" type="line"/>
      <point x="445.1372549019608" y="397.0" type="line"/>
      <point x="342.96078431372547" y="397.0" type="line"/>
      <point x="448.96078431372547" y="714.0" type="line"/>
      <point x="90.01960784313725" y="714.0" type="line"/>
      <point x="49.19607843137255" y="591.0784313725491" type="line"/>
      <point x="263.72549019607845" y="591.0784313725491" type="line"/>
      <point x="197.54901960784315" y="397.0" type="line"/>
      <point x="87.27450980392157" y="397.0" type="line"/>
      <point x="46.450980392156865" y="274.078431372549" type="line"/>
      <point x="156.72549019607843" y="274.078431372549" type="line"/>
    </contour>
  </outline>
</glyph>
<glyph name="uni1B9F" format="2">
  <advance width="826.0980392156863"/>
  <unicode hex="1B9F"/>
  <outline>
    <contour>
      <point x="70.7843137254902" y="0.0" type="line"/>
      <point x="219.19607843137254" y="0.0" type="line"/>
      <point x="310.37254901960785" y="274.078431372549" type="line"/>
      <point x="572.4509803921569" y="274.078431372549" type="line"/>
      <point x="480.27450980392155" y="0.0" type="line"/>
      <point x="628.686274509804" y="0.0" type="line"/>
      <point x="866.686274509804" y="714.0" type="line"/>
      <point x="92.76470588235294" y="714.0" type="line"/>
      <point x="51.94117647058823" y="591.0784313725491" type="line"/>
      <point x="269.96078431372547" y="591.0784313725491" type="line"/>
      <point x="203.7843137254902" y="397.0" type="line"/>
      <point x="92.76470588235294" y="397.0" type="line"/>
      <point x="51.94117647058823" y="274.078431372549" type="line"/>
      <point x="162.9607843137255" y="274.078431372549" type="line"/>
    </contour>
    <contour>
      <point x="351.19607843137254" y="397.0" type="line"/>
      <point x="415.37254901960785" y="591.0784313725491" type="line"/>
      <point x="679.4509803921569" y="591.0784313725491" type="line"/>
      <point x="613.2745098039215" y="397.0" type="line"/>
    </contour>
  </outline>
</glyph>
<glyph name="uni1BA0" format="2">
  <advance width="900.1176470588235"/>
  <unicode hex="1BA0"/>
  <outline>
    <contour>
      <point x="53.90196078431372" y="0.0" type="line"/>
      <point x="440.98039215686276" y="0.0" type="line"/>
      <point x="635.2549019607843" y="591.0784313725491" type="line"/>
      <point x="752.2745098039215" y="591.0784313725491" type="line"/>
      <point x="558.0" y="0.0" type="line"/>
      <point x="710.9019607843137" y="0.0" type="line"/>
      <point x="944.9019607843137" y="714.0" type="line"/>
      <point x="522.5294117647059" y="714.0" type="line"/>
      <point x="330.9019607843137" y="124.56862745098039" type="line"/>
      <point x="243.88235294117646" y="124.56862745098039" type="line"/>
      <point x="342.70588235294116" y="416.94117647058823" type="line"/>
      <point x="50.23529411764706" y="416.94117647058823" type="line"/>
      <point x="8.313725490196077" y="294.5686274509804" type="line"/>
      <point x="152.1764705882353" y="294.5686274509804" type="line"/>
    </contour>
  </outline>
</glyph>
<glyph name="uni1BA1" format="2">
  <advance width="272.3921568627451"/>
  <unicode hex="1BA1"/>
  <outline>
    <contour>
      <point x="-614.2352941176471" y="-251.4313725490196" type="line"/>
      <point x="-72.86274509803921" y="-251.4313725490196" type="line"/>
      <point x="84.33333333333334" y="225.2549019607843" type="line"/>
      <point x="139.33333333333334" y="225.2549019607843" type="line"/>
      <point x="114.37254901960785" y="148.37254901960785" type="line"/>
      <point x="198.33333333333334" y="148.37254901960785" type="line"/>
      <point x="248.4313725490196" y="303.21568627450984" type="line"/>
      <point x="16.50980392156863" y="303.21568627450984" type="line"/>
      <point x="-140.33333333333334" y="-174.9607843137255" type="line"/>
      <point x="-505.7843137254902" y="-174.9607843137255" type="line"/>
      <point x="-487.6862745098039" y="-119.66666666666667" type="line"/>
      <point x="-571.6470588235294" y="-119.66666666666667" type="line"/>
    </contour>
  </outline>
</glyph>
<glyph name="uni1BA2" format="2">
  <unicode hex="1BA2"/>
  <outline>
    <contour>
      <point x="-127.6470588235294" y="-280.3333333333333" type="curve" smooth="yes"/>
      <point x="-54.64705882352941" y="-280.3333333333333"/>
      <point x="13.647058823529411" y="-246.58823529411765"/>
      <point x="13.647058823529411" y="-157.7450980392157" type="curve" smooth="yes"/>
      <point x="13.647058823529411" y="-106.45098039215686"/>
      <point x="-24.352941176470587" y="-54.90196078431372"/>
      <point x="-62.450980392156865" y="-22.80392156862745" type="curve"/>
      <point x="-117.43137254901961" y="-72.68627450980392" type="line"/>
      <point x="-90.7843137254902" y="-103.88235294117646"/>
      <point x="-67.17647058823529" y="-130.4313725490196"/>
      <point x="-67.17647058823529" y="-161.3921568627451" type="curve" smooth="yes"/>
      <point x="-67.17647058823529" y="-187.80392156862746"/>
      <point x="-88.43137254901961" y="-206.50980392156862"/>
      <point x="-128.54901960784315" y="-206.50980392156862" type="curve" smooth="yes"/>
      <point x="-219.0" y="-206.50980392156862"/>
      <point x="-344.3529411764706" y="-74.90196078431373"/>
      <point x="-395.3529411764706" y="-28.901960784313726" type="curve"/>
      <point x="-590.4901960784314" y="-126.74509803921569" type="line"/>
      <point x="-551.8039215686274" y="-200.921568627451" type="line"/>
      <point x="-407.45098039215685" y="-128.11764705882354" type="line"/>
      <point x="-338.54901960784315" y="-189.5686274509804"/>
      <point x="-242.19607843137254" y="-280.3333333333333"/>
    </contour>
  </outline>
</glyph>
<glyph name="uni1BA3" format="2">
  <unicode hex="1BA3"/>
  <outline>
    <contour>
      <point x="-591.9803921568628" y="-248.0" type="line"/>
      <point x="-525.0" y="-248.0" type="line"/>
      <point x="-478.19607843137254" y="-104.03921568627452" type="line"/>
      <point x="-421.6862745098039" y="-104.03921568627452" type="line"/>
      <point x="-465.4901960784314" y="-240.0" type="line"/>
      <point x="-328.0" y="-240.0" type="line"/>
      <point x="-308.6078431372549" y="-181.8235294117647" type="line"/>
      <point x="-380.11764705882354" y="-181.8235294117647" type="line"/>
      <point x="-335.3137254901961" y="-45.86274509803921" type="line"/>
      <point x="-525.7843137254902" y="-45.86274509803921" type="line"/>
    </contour>
  </outline>
</glyph>
<glyph name="uni1BA4" format="2">
  <unicode hex="1BA4"/>
  <outline>
    <contour>
      <point x="-237.88235294117646" y="747.4117647058823" type="line"/>
      <point x="-146.45098039215685" y="986.9607843137255" type="line"/>
      <point x="-379.4117647058824" y="986.9607843137255" type="line"/>
      <point x="-379.4117647058824" y="922.4901960784314" type="line"/>
      <point x="-250.7058823529412" y="922.4901960784314" type="line"/>
      <point x="-286.70588235294116" y="835.9803921568628" type="line"/>
      <point x="-381.4117647058824" y="849.4313725490196" type="line"/>
      <point x="-395.3529411764706" y="789.3529411764706" type="line"/>
    </contour>
  </outline>
</glyph>
<glyph name="uni1BA5" format="2">
  <unicode hex="1BA5"/>
  <outline>
    <contour>
      <point x="-494.1764705882353" y="-248.0" type="line"/>
      <point x="-424.0" y="-248.0" type="line"/>
      <point x="-344.2549019607843" y="-45.86274509803921" type="line"/>
      <point x="-546.7843137254902" y="-45.86274509803921" type="line"/>
      <point x="-546.7843137254902" y="-106.49019607843137" type="line"/>
      <point x="-439.37254901960785" y="-106.49019607843137" type="line"/>
    </contour>
  </outline>
</glyph>
<glyph name="uni1BA6" format="2">
  <advance width="375.0"/>
  <unicode hex="1BA6"/>
  <outline>
    <contour>
      <point x="18.509803921568626" y="0.0" type="line"/>
      <point x="297.4901960784314" y="0.0" type="line"/>
      <point x="323.88235294117646" y="81.17647058823529" type="line"/>
      <point x="142.01960784313727" y="81.17647058823529" type="line"/>
      <point x="175.1764705882353" y="158.13725490196077" type="line"/>
      <point x="280.72549019607845" y="158.13725490196077" type="line"/>
      <point x="302.11764705882354" y="224.76470588235293" type="line"/>
      <point x="204.66666666666666" y="224.76470588235293" type="line"/>
      <point x="270.6666666666667" y="376.3137254901961" type="line"/>
      <point x="15.686274509803923" y="376.3137254901961" type="line"/>
      <point x="-10.705882352941176" y="295.1372549019608" type="line"/>
      <point x="149.7058823529412" y="295.1372549019608" type="line"/>
    </contour>
  </outline>
</glyph>
<glyph name="uni1BA7" format="2">
  <advance width="375.0"/>
  <unicode hex="1BA7"/>
  <outline>
    <contour>
      <point x="29.509803921568626" y="0.0" type="line"/>
      <point x="307.94117647058823" y="0.0" type="line"/>
      <point x="334.3333333333333" y="81.17647058823529" type="line"/>
      <point x="152.47058823529412" y="81.17647058823529" type="line"/>
      <point x="281.6666666666667" y="376.3137254901961" type="line"/>
      <point x="27.235294117647058" y="376.3137254901961" type="line"/>
      <point x="0.8431372549019613" y="295.1372549019608" type="line"/>
      <point x="160.7058823529412" y="295.1372549019608" type="line"/>
      <point x="128.7450980392157" y="224.76470588235293" type="line"/>
      <point x="27.58823529411765" y="224.76470588235293" type="line"/>
      <point x="6.196078431372549" y="158.13725490196077" type="line"/>
      <point x="98.70588235294117" y="158.13725490196077" type="line"/>
    </contour>
  </outline>
</glyph>
<glyph name="uni1BA8" format="2">
  <unicode hex="1BA8"/>
  <outline>
    <contour>
      <point x="-277.47058823529414" y="756.0" type="line"/>
      <point x="-209.50980392156862" y="756.0" type="line"/>
      <point x="-79.01960784313725" y="974.2156862745098" type="line"/>
      <point x="-166.49019607843138" y="974.2156862745098" type="line"/>
      <point x="-243.49019607843138" y="838.5294117647059" type="line"/>
      <point x="-320.4901960784314" y="974.2156862745098" type="line"/>
      <point x="-407.96078431372547" y="974.2156862745098" type="line"/>
    </contour>
  </outline>
</glyph>
<glyph name="uni1BA9" format="2">
  <unicode hex="1BA9"/>
  <outline>
    <contour>
      <point x="-277.47058823529414" y="756.0" type="line"/>
      <point x="-209.50980392156862" y="756.0" type="line"/>
      <point x="-79.01960784313725" y="974.2156862745098" type="line"/>
      <point x="-166.49019607843138" y="974.2156862745098" type="line"/>
      <point x="-243.49019607843138" y="838.5294117647059" type="line"/>
      <point x="-259.94117647058823" y="868.0784313725491" type="line"/>
      <point x="-198.94117647058823" y="974.2156862745098" type="line"/>
      <point x="-258.72549019607845" y="974.2156862745098" type="line"/>
      <point x="-289.3333333333333" y="919.5098039215686" type="line"/>
      <point x="-320.4901960784314" y="974.2156862745098" type="line"/>
      <point x="-407.96078431372547" y="974.2156862745098" type="line"/>
    </contour>
  </outline>
</glyph>
<glyph name="uni1BAA" format="2">
  <advance width="278.27450980392155"/>
  <unicode hex="1BAA"/>
  <outline>
    <contour>
      <point x="117.98039215686275" y="-141.27450980392157" type="curve" smooth="yes"/>
      <point x="157.11764705882354" y="-141.27450980392157"/>
      <point x="205.2156862745098" y="-129.4313725490196"/>
      <point x="238.60784313725492" y="-109.33333333333333" type="curve"/>
      <point x="218.86274509803923" y="-53.0" type="line"/>
      <point x="202.47058823529412" y="-62.19607843137255"/>
      <point x="168.37254901960785" y="-77.54901960784314"/>
      <point x="130.2156862745098" y="-77.54901960784314" type="curve" smooth="yes"/>
      <point x="99.50980392156863" y="-77.54901960784314"/>
      <point x="87.31372549019608" y="-69.84313725490196"/>
      <point x="87.31372549019608" y="-56.3921568627451" type="curve" smooth="yes"/>
      <point x="87.31372549019608" y="-37.490196078431374"/>
      <point x="124.2156862745098" y="-12.941176470588236"/>
      <point x="163.05882352941177" y="19.607843137254903" type="curve" smooth="yes"/>
      <point x="195.2549019607843" y="46.509803921568626"/>
      <point x="228.15686274509804" y="75.09803921568627"/>
      <point x="228.15686274509804" y="125.3529411764706" type="curve" smooth="yes"/>
      <point x="228.15686274509804" y="187.09803921568627"/>
      <point x="175.47058823529412" y="215.0"/>
      <point x="118.19607843137256" y="222.0" type="curve"/>
      <point x="215.54901960784315" y="304.70588235294116" type="line"/>
      <point x="215.54901960784315" y="339.98039215686276" type="line"/>
      <point x="2.1372549019607847" y="339.98039215686276" type="line"/>
      <point x="-20.0" y="276.8627450980392" type="line"/>
      <point x="80.09803921568627" y="276.8627450980392" type="line"/>
      <point x="-0.2549019607843137" y="211.90196078431373" type="line"/>
      <point x="-13.098039215686274" y="172.92156862745097" type="line"/>
      <point x="19.137254901960784" y="172.92156862745097" type="line" smooth="yes"/>
      <point x="113.86274509803921" y="172.92156862745097"/>
      <point x="150.33333333333334" y="159.37254901960785"/>
      <point x="150.33333333333334" y="124.80392156862744" type="curve" smooth="yes"/>
      <point x="150.33333333333334" y="100.6470588235294"/>
      <point x="119.52941176470588" y="75.3921568627451"/>
      <point x="83.33333333333333" y="45.84313725490196" type="curve" smooth="yes"/>
      <point x="41.294117647058826" y="11.549019607843137"/>
      <point x="3.647058823529412" y="-20.098039215686274"/>
      <point x="3.647058823529412" y="-65.13725490196079" type="curve" smooth="yes"/>
      <point x="3.647058823529412" y="-124.72549019607843"/>
      <point x="60.431372549019606" y="-141.27450980392157"/>
    </contour>
  </outline>
</glyph>
<glyph name="uni1BAB" format="2">
  <unicode hex="1BAB"/>
  <outline>
    <contour>
      <point x="113.50980392156863" y="251.35294117647058" type="line"/>
      <point x="155.49019607843138" y="251.35294117647058" type="line"/>
      <point x="155.49019607843138" y="312.5098039215686" type="line"/>
      <point x="216.64705882352942" y="312.5098039215686" type="line"/>
      <point x="216.64705882352942" y="354.4901960784314" type="line"/>
      <point x="155.49019607843138" y="354.4901960784314" type="line"/>
      <point x="155.49019607843138" y="415.6470588235294" type="line"/>
      <point x="113.50980392156863" y="415.6470588235294" type="line"/>
      <point x="113.50980392156863" y="354.4901960784314" type="line"/>
      <point x="52.35294117647059" y="354.4901960784314" type="line"/>
      <point x="52.35294117647059" y="312.5098039215686" type="line"/>
      <point x="113.50980392156863" y="312.5098039215686" type="line"/>
    </contour>
  </outline>
</glyph>
<glyph name="uni1BAC" format="2">
  <unicode hex="1BAC"/>
  <outline>
    <contour>
      <point x="-493.3921568627451" y="-276.4901960784314" type="curve" smooth="yes"/>
      <point x="-339.0980392156863" y="-276.4901960784314"/>
      <point x="-264.9019607843137" y="-164.64705882352942"/>
      <point x="-264.9019607843137" y="-47.254901960784316" type="curve" smooth="yes"/>
      <point x="-264.9019607843137" y="-33.509803921568626" type="line"/>
      <point x="-341.37254901960785" y="-33.509803921568626" type="line"/>
      <point x="-341.37254901960785" y="-49.254901960784316" type="line" smooth="yes"/>
      <point x="-341.37254901960785" y="-107.6078431372549"/>
      <point x="-378.37254901960785" y="-202.66666666666666"/>
      <point x="-495.3921568627451" y="-202.66666666666666" type="curve" smooth="yes"/>
      <point x="-568.3529411764706" y="-202.66666666666666"/>
      <point x="-602.0588235294117" y="-179.9607843137255"/>
      <point x="-602.0588235294117" y="-144.0" type="curve" smooth="yes"/>
      <point x="-602.0588235294117" y="-105.68627450980392"/>
      <point x="-565.1960784313726" y="-86.49019607843137"/>
      <point x="-513.3921568627451" y="-86.49019607843137" type="curve" smooth="yes"/>
      <point x="-490.3921568627451" y="-86.49019607843137"/>
      <point x="-466.3921568627451" y="-87.49019607843137"/>
      <point x="-454.3921568627451" y="-88.49019607843137" type="curve"/>
      <point x="-454.3921568627451" y="-26.509803921568626" type="line"/>
      <point x="-463.3921568627451" y="-24.509803921568626"/>
      <point x="-485.3921568627451" y="-22.509803921568626"/>
      <point x="-513.3921568627451" y="-22.509803921568626" type="curve" smooth="yes"/>
      <point x="-602.2352941176471" y="-22.509803921568626"/>
      <point x="-683.9803921568628" y="-65.15686274509804"/>
      <point x="-683.9803921568628" y="-144.0" type="curve" smooth="yes"/>
      <point x="-683.9803921568628" y="-230.68627450980392"/>
      <point x="-600.686274509804" y="-276.4901960784314"/>
    </contour>
  </outline>
</glyph>
<glyph name="uni1BAD" format="2">
  <unicode hex="1BAD"/>
  <outline>
    <contour>
      <point x="-400.45098039215685" y="-251.84313725490196" type="line"/>
      <point x="-199.76470588235293" y="-251.84313725490196" type="line"/>
      <point x="-199.76470588235293" y="-192.92156862745097" type="line"/>
      <point x="-305.84313725490193" y="-192.92156862745097" type="line"/>
      <point x="-241.58823529411765" y="-47.509803921568626" type="line"/>
      <point x="-443.37254901960785" y="-47.509803921568626" type="line"/>
      <point x="-443.37254901960785" y="-106.43137254901961" type="line"/>
      <point x="-336.19607843137254" y="-106.43137254901961" type="line"/>
    </contour>
    <contour>
      <point x="-619.8823529411765" y="-251.84313725490196" type="line"/>
      <point x="-419.19607843137254" y="-251.84313725490196" type="line"/>
      <point x="-419.19607843137254" y="-192.92156862745097" type="line"/>
      <point x="-525.2745098039215" y="-192.92156862745097" type="line"/>
      <point x="-461.01960784313724" y="-47.509803921568626" type="line"/>
      <point x="-662.8039215686274" y="-47.509803921568626" type="line"/>
      <point x="-662.8039215686274" y="-106.43137254901961" type="line"/>
      <point x="-555.6274509803922" y="-106.43137254901961" type="line"/>
    </contour>
  </outline>
</glyph>
<glyph name="uni1BAE" format="2">
  <advance width="1537.921568627451"/>
  <unicode hex="1BAE"/>
  <outline>
    <contour>
      <point x="66.19607843137254" y="0.0" type="line"/>
      <point x="210.9607843137255" y="0.0" type="line"/>
      <point x="408.1372549019608" y="591.0784313725491" type="line"/>
      <point x="633.3529411764706" y="591.0784313725491" type="line"/>
      <point x="436.4313725490196" y="0.0" type="line"/>
      <point x="581.1960784313726" y="0.0" type="line"/>
      <point x="679.1176470588235" y="294.5686274509804" type="line"/>
      <point x="788.8823529411765" y="294.5686274509804" type="line"/>
      <point x="690.6078431372549" y="0.0" type="line"/>
      <point x="1077.686274509804" y="0.0" type="line"/>
      <point x="1271.9607843137255" y="591.0784313725491" type="line"/>
      <point x="1388.9803921568628" y="591.0784313725491" type="line"/>
      <point x="1194.7058823529412" y="0.0" type="line"/>
      <point x="1347.6078431372548" y="0.0" type="line"/>
      <point x="1581.6078431372548" y="714.0" type="line"/>
      <point x="1159.235294117647" y="714.0" type="line"/>
      <point x="967.6078431372549" y="124.56862745098039" type="line"/>
      <point x="878.9411764705883" y="124.56862745098039" type="line"/>
      <point x="975.0196078431372" y="416.94117647058823" type="line"/>
      <point x="719.3921568627451" y="416.94117647058823" type="line"/>
      <point x="818.2941176470588" y="714.0" type="line"/>
      <point x="111.52941176470588" y="714.0" type="line"/>
      <point x="70.70588235294117" y="591.0784313725491" type="line"/>
      <point x="263.11764705882354" y="591.0784313725491" type="line"/>
    </contour>
  </outline>
</glyph>
<glyph name="uni1BAF" format="2">
  <advance width="1747.4705882352941"/>
  <unicode hex="1BAF"/>
  <outline>
    <contour>
      <point x="71.68627450980392" y="0.0" type="line"/>
      <point x="219.19607843137254" y="0.0" type="line"/>
      <point x="310.37254901960785" y="274.078431372549" type="line"/>
      <point x="537.4901960784314" y="274.078431372549" type="line"/>
      <point x="445.3137254901961" y="0.0" type="line"/>
      <point x="592.8235294117648" y="0.0" type="line"/>
      <point x="684.5490196078431" y="274.078431372549" type="line"/>
      <point x="907.4705882352941" y="274.078431372549" type="line"/>
      <point x="814.7450980392157" y="0.0" type="line"/>
      <point x="1251.6078431372548" y="0.0" type="line"/>
      <point x="1331.8823529411766" y="245.92156862745097" type="line"/>
      <point x="1428.137254901961" y="0.0" type="line"/>
      <point x="1575.549019607843" y="0.0" type="line"/>
      <point x="1751.549019607843" y="536.0" type="line"/>
      <point x="1605.137254901961" y="536.0" type="line"/>
      <point x="1489.0588235294117" y="183.2156862745098" type="line"/>
      <point x="1393.2549019607843" y="432.4901960784314" type="line"/>
      <point x="1485.6078431372548" y="714.0" type="line"/>
      <point x="1339.1960784313726" y="714.0" type="line"/>
      <point x="1146.4705882352941" y="122.92156862745098" type="line"/>
      <point x="999.7843137254902" y="122.92156862745098" type="line"/>
      <point x="1092.5098039215686" y="397.0" type="line"/>
      <point x="725.3725490196078" y="397.0" type="line"/>
      <point x="830.8235294117648" y="714.0" type="line"/>
      <point x="92.76470588235294" y="714.0" type="line"/>
      <point x="51.94117647058823" y="591.0784313725491" type="line"/>
      <point x="270.8627450980392" y="591.0784313725491" type="line"/>
      <point x="204.68627450980392" y="397.0" type="line"/>
      <point x="92.76470588235294" y="397.0" type="line"/>
      <point x="51.94117647058823" y="274.078431372549" type="line"/>
      <point x="163.86274509803923" y="274.078431372549" type="line"/>
    </contour>
    <contour>
      <point x="351.19607843137254" y="397.0" type="line"/>
      <point x="415.37254901960785" y="591.0784313725491" type="line"/>
      <point x="644.4901960784314" y="591.0784313725491" type="line"/>
      <point x="578.313725490196" y="397.0" type="line"/>
    </contour>
  </outline>
</glyph>
<glyph name="uni1BB0" format="2">
  <advance width="828.0"/>
  <unicode hex="1BB0"/>
  <outline>
    <contour>
      <point x="419.0" y="-2.0" type="curve" smooth="yes"/>
      <point x="617.0" y="-2.0"/>
      <point x="778.0" y="159.0"/>
      <point x="778.0" y="357.0" type="curve" smooth="yes"/>
      <point x="778.0" y="555.0"/>
      <point x="617.0" y="716.0"/>
      <point x="419.0" y="716.0" type="curve" smooth="yes"/>
      <point x="221.0" y="716.0"/>
      <point x="60.0" y="555.0"/>
      <point x="60.0" y="357.0" type="curve" smooth="yes"/>
      <point x="60.0" y="159.0"/>
      <point x="221.0" y="-2.0"/>
    </contour>
    <contour>
      <point x="419.0" y="116.3529411764706" type="curve" smooth="yes"/>
      <point x="286.27450980392155" y="116.3529411764706"/>
      <point x="178.35294117647058" y="224.27450980392157"/>
      <point x="178.35294117647058" y="357.0" type="curve" smooth="yes"/>
      <point x="178.35294117647058" y="488.72549019607845"/>
      <point x="286.27450980392155" y="597.6470588235294"/>
      <point x="419.0" y="597.6470588235294" type="curve" smooth="yes"/>
      <point x="550.7254901960785" y="597.6470588235294"/>
      <point x="659.6470588235294" y="488.72549019607845"/>
      <point x="659.6470588235294" y="357.0" type="curve" smooth="yes"/>
      <point x="659.6470588235294" y="224.27450980392157"/>
      <point x="550.7254901960785" y="116.3529411764706"/>
    </contour>
  </outline>
</glyph>
<glyph name="uni1BB1" format="2">
  <advance width="819.3137254901961"/>
  <unicode hex="1BB1"/>
  <outline>
    <contour>
      <point x="80.01960784313725" y="0.0" type="line"/>
      <point x="665.9803921568628" y="0.0" type="line"/>
      <point x="787.6666666666666" y="370.21568627450984" type="line"/>
      <point x="455.6666666666667" y="370.21568627450984" type="line"/>
      <point x="401.52941176470586" y="204.41176470588235" type="line"/>
      <point x="516.5882352941177" y="204.41176470588235" type="line"/>
      <point x="533.0" y="249.49019607843138" type="line"/>
      <point x="604.5294117647059" y="249.49019607843138" type="line"/>
      <point x="562.2941176470588" y="122.92156862745098" type="line"/>
      <point x="267.70588235294116" y="122.92156862745098" type="line"/>
      <point x="422.6078431372549" y="591.0784313725491" type="line"/>
      <point x="554.7058823529412" y="591.0784313725491" type="line"/>
      <point x="575.0588235294117" y="537.7647058823529" type="line"/>
      <point x="714.0784313725491" y="537.7647058823529" type="line"/>
      <point x="654.5490196078431" y="714.0" type="line"/>
      <point x="104.33333333333333" y="714.0" type="line"/>
      <point x="44.607843137254896" y="530.0784313725491" type="line"/>
      <point x="168.54901960784315" y="530.0784313725491" type="line"/>
      <point x="188.54901960784315" y="591.0784313725491" type="line"/>
      <point x="275.7450980392157" y="591.0784313725491" type="line"/>
    </contour>
  </outline>
</glyph>
<glyph name="uni1BB2" format="2">
  <advance width="781.156862745098"/>
  <unicode hex="1BB2"/>
  <outline>
    <contour>
      <point x="90.80392156862744" y="0.0" type="line"/>
      <point x="664.1960784313726" y="0.0" type="line"/>
      <point x="745.5882352941177" y="251.37254901960785" type="line"/>
      <point x="603.2745098039215" y="251.37254901960785" type="line"/>
      <point x="562.7058823529412" y="122.92156862745098" type="line"/>
      <point x="275.6470588235294" y="122.92156862745098" type="line"/>
      <point x="317.1372549019608" y="248.94117647058823" type="line"/>
      <point x="506.6078431372549" y="248.94117647058823" type="line"/>
      <point x="547.4313725490197" y="371.8627450980392" type="line"/>
      <point x="357.9607843137255" y="371.8627450980392" type="line"/>
      <point x="470.8235294117647" y="714.0" type="line"/>
      <point x="105.98039215686275" y="714.0" type="line"/>
      <point x="45.705882352941174" y="530.0784313725491" type="line"/>
      <point x="169.64705882352942" y="530.0784313725491" type="line"/>
      <point x="189.64705882352942" y="591.0784313725491" type="line"/>
      <point x="285.52941176470586" y="591.0784313725491" type="line"/>
    </contour>
  </outline>
</glyph>
<glyph name="uni1BB3" format="2">
  <advance width="792.4509803921569"/>
  <unicode hex="1BB3"/>
  <outline>
    <contour>
      <point x="82.66666666666667" y="0.0" type="line"/>
      <point x="697.8235294117648" y="0.0" type="line"/>
      <point x="725.156862745098" y="78.70588235294117" type="line"/>
      <point x="625.0980392156863" y="165.31372549019608" type="line" smooth="yes"/>
      <point x="592.2745098039215" y="192.84313725490196"/>
      <point x="558.6274509803922" y="222.49019607843138"/>
      <point x="558.6274509803922" y="237.64705882352942" type="curve" smooth="yes"/>
      <point x="558.6274509803922" y="249.35294117647058"/>
      <point x="565.1764705882354" y="263.2156862745098"/>
      <point x="604.1764705882354" y="263.2156862745098" type="curve" smooth="yes"/>
      <point x="768.4901960784314" y="263.2156862745098" type="line"/>
      <point x="808.7647058823529" y="383.94117647058823" type="line"/>
      <point x="577.3725490196078" y="383.94117647058823" type="line" smooth="yes"/>
      <point x="457.3137254901961" y="383.94117647058823"/>
      <point x="412.27450980392155" y="330.0980392156863"/>
      <point x="412.27450980392155" y="262.05882352941177" type="curve" smooth="yes"/>
      <point x="412.27450980392155" y="223.54901960784315"/>
      <point x="436.6862745098039" y="189.3921568627451"/>
      <point x="463.03921568627453" y="163.19607843137254" type="curve" smooth="yes"/>
      <point x="507.01960784313724" y="120.1764705882353" type="line"/>
      <point x="274.6470588235294" y="120.1764705882353" type="line"/>
      <point x="470.921568627451" y="714.0" type="line"/>
      <point x="105.52941176470588" y="714.0" type="line"/>
      <point x="45.803921568627445" y="530.0784313725491" type="line"/>
      <point x="169.7450980392157" y="530.0784313725491" type="line"/>
      <point x="189.7450980392157" y="591.0784313725491" type="line"/>
      <point x="277.3921568627451" y="591.0784313725491" type="line"/>
    </contour>
  </outline>
</glyph>
<glyph name="uni1BB4" format="2">
  <advance width="600.8823529411765"/>
  <unicode hex="1BB4"/>
  <outline>
    <contour>
      <point x="150.72549019607843" y="0.0" type="line"/>
      <point x="296.1372549019608" y="0.0" type="line"/>
      <point x="383.4117647058824" y="261.27450980392155" type="line"/>
      <point x="579.8823529411765" y="261.27450980392155" type="line"/>
      <point x="634.156862745098" y="428.19607843137254" type="line"/>
      <point x="515.7058823529412" y="428.19607843137254" type="line"/>
      <point x="501.70588235294116" y="384.19607843137254" type="line"/>
      <point x="423.6862745098039" y="384.19607843137254" type="line"/>
      <point x="534.1372549019608" y="714.0" type="line"/>
      <point x="129.72549019607843" y="714.0" type="line"/>
      <point x="70.54901960784314" y="530.0784313725491" type="line"/>
      <point x="194.49019607843138" y="530.0784313725491" type="line"/>
      <point x="214.49019607843138" y="591.0784313725491" type="line"/>
      <point x="348.54901960784315" y="591.0784313725491" type="line"/>
      <point x="278.27450980392155" y="384.19607843137254" type="line"/>
      <point x="82.80392156862744" y="384.19607843137254" type="line"/>
      <point x="28.52941176470588" y="217.27450980392157" type="line"/>
      <point x="146.4313725490196" y="217.27450980392157" type="line"/>
      <point x="160.4313725490196" y="261.27450980392155" type="line"/>
      <point x="237.0" y="261.27450980392155" type="line"/>
    </contour>
  </outline>
</glyph>
<glyph name="uni1BB5" format="2">
  <advance width="971.4117647058823"/>
  <unicode hex="1BB5"/>
  <outline>
    <contour>
      <point x="87.80392156862746" y="0.0" type="line"/>
      <point x="913.1960784313726" y="0.0" type="line"/>
      <point x="718.4705882352941" y="591.0784313725491" type="line"/>
      <point x="794.9607843137255" y="591.0784313725491" type="line"/>
      <point x="814.9607843137255" y="530.0784313725491" type="line"/>
      <point x="938.9019607843137" y="530.0784313725491" type="line"/>
      <point x="879.6274509803922" y="714.0" type="line"/>
      <point x="534.5294117647059" y="714.0" type="line"/>
      <point x="728.7058823529412" y="124.01960784313727" type="line"/>
      <point x="272.29411764705884" y="124.01960784313727" type="line"/>
      <point x="466.47058823529414" y="714.0" type="line"/>
      <point x="121.37254901960785" y="714.0" type="line"/>
      <point x="62.09803921568627" y="530.0784313725491" type="line"/>
      <point x="186.0392156862745" y="530.0784313725491" type="line"/>
      <point x="206.0392156862745" y="591.0784313725491" type="line"/>
      <point x="282.52941176470586" y="591.0784313725491" type="line"/>
    </contour>
  </outline>
</glyph>
<glyph name="uni1BB6" format="2">
  <advance width="693.7450980392157"/>
  <unicode hex="1BB6"/>
  <outline>
    <contour>
      <point x="-26.392156862745097" y="0.0" type="line"/>
      <point x="588.2156862745098" y="0.0" type="line"/>
      <point x="615.5490196078431" y="78.70588235294117" type="line"/>
      <point x="515.4901960784314" y="165.31372549019608" type="line" smooth="yes"/>
      <point x="482.6666666666667" y="192.84313725490196"/>
      <point x="449.01960784313724" y="222.49019607843138"/>
      <point x="449.01960784313724" y="237.64705882352942" type="curve" smooth="yes"/>
      <point x="449.01960784313724" y="249.35294117647058"/>
      <point x="455.5686274509804" y="263.2156862745098"/>
      <point x="494.5686274509804" y="263.2156862745098" type="curve" smooth="yes"/>
      <point x="658.8823529411765" y="263.2156862745098" type="line"/>
      <point x="699.156862745098" y="383.94117647058823" type="line"/>
      <point x="467.7647058823529" y="383.94117647058823" type="line" smooth="yes"/>
      <point x="347.70588235294116" y="383.94117647058823"/>
      <point x="302.6666666666667" y="330.0980392156863"/>
      <point x="302.6666666666667" y="262.05882352941177" type="curve" smooth="yes"/>
      <point x="302.6666666666667" y="223.54901960784315"/>
      <point x="327.078431372549" y="189.3921568627451"/>
      <point x="353.4313725490196" y="163.19607843137254" type="curve" smooth="yes"/>
      <point x="397.4117647058824" y="120.1764705882353" type="line"/>
      <point x="164.13725490196077" y="120.1764705882353" type="line"/>
      <point x="319.5882352941177" y="591.0784313725491" type="line"/>
      <point x="399.5882352941177" y="591.0784313725491" type="line"/>
      <point x="418.5882352941177" y="544.0784313725491" type="line"/>
      <point x="556.2549019607843" y="544.0784313725491" type="line"/>
      <point x="499.88235294117646" y="714.0" type="line"/>
      <point x="208.6078431372549" y="714.0" type="line"/>
    </contour>
  </outline>
</glyph>
<glyph name="uni1BB7" format="2">
  <advance width="879.2549019607843"/>
  <unicode hex="1BB7"/>
  <outline>
    <contour>
      <point x="-84.49019607843137" y="0.0" type="line"/>
      <point x="143.66666666666669" y="0.0" type="line"/>
      <point x="338.3921568627451" y="591.0784313725491" type="line"/>
      <point x="439.0980392156863" y="591.0784313725491" type="line"/>
      <point x="242.37254901960785" y="0.0" type="line"/>
      <point x="662.7843137254902" y="0.0" type="line"/>
      <point x="856.9607843137255" y="591.0784313725491" type="line"/>
      <point x="934.9607843137255" y="591.0784313725491" type="line"/>
      <point x="975.7843137254902" y="714.0" type="line"/>
      <point x="742.7843137254902" y="714.0" type="line"/>
      <point x="549.7058823529412" y="124.56862745098039" type="line"/>
      <point x="437.19607843137254" y="124.56862745098039" type="line"/>
      <point x="631.2745098039215" y="714.0" type="line"/>
      <point x="225.31372549019608" y="714.0" type="line"/>
      <point x="33.23529411764706" y="124.56862745098039" type="line"/>
      <point x="-44.76470588235294" y="124.56862745098039" type="line"/>
    </contour>
  </outline>
</glyph>
<glyph name="uni1BB8" format="2">
  <advance width="873.3137254901961"/>
  <unicode hex="1BB8"/>
  <outline>
    <contour>
      <point x="421.03921568627453" y="-14.0" type="curve" smooth="yes"/>
      <point x="514.5686274509804" y="-14.0"/>
      <point x="573.7058823529412" y="32.882352941176464"/>
      <point x="624.7450980392157" y="187.0" type="curve" smooth="yes"/>
      <point x="758.4705882352941" y="591.6274509803922" type="line"/>
      <point x="793.1960784313726" y="591.6274509803922" type="line"/>
      <point x="820.1960784313726" y="520.6274509803922" type="line"/>
      <point x="952.3725490196078" y="520.6274509803922" type="line"/>
      <point x="888.0" y="714.0" type="line"/>
      <point x="652.3333333333334" y="714.0" type="line"/>
      <point x="498.3333333333333" y="249.0" type="line" smooth="yes"/>
      <point x="464.5098039215686" y="147.62745098039215"/>
      <point x="459.11764705882354" y="119.92156862745098"/>
      <point x="420.4901960784314" y="119.92156862745098" type="curve" smooth="yes"/>
      <point x="390.47058823529414" y="119.92156862745098"/>
      <point x="358.54901960784315" y="159.01960784313727"/>
      <point x="333.37254901960785" y="184.90196078431373" type="curve"/>
      <point x="507.5882352941177" y="714.0" type="line"/>
      <point x="148.3921568627451" y="714.0" type="line"/>
      <point x="89.11764705882354" y="530.0784313725491" type="line"/>
      <point x="208.11764705882354" y="530.0784313725491" type="line"/>
      <point x="228.11764705882354" y="591.0784313725491" type="line"/>
      <point x="324.19607843137254" y="591.0784313725491" type="line"/>
      <point x="213.64705882352942" y="254.27450980392157" type="line"/>
      <point x="190.35294117647058" y="266.8235294117647"/>
      <point x="155.64705882352942" y="276.27450980392155"/>
      <point x="120.70588235294117" y="276.27450980392155" type="curve" smooth="yes"/>
      <point x="34.13725490196079" y="276.27450980392155"/>
      <point x="-31.96078431372549" y="218.80392156862746"/>
      <point x="-31.96078431372549" y="127.50980392156863" type="curve" smooth="yes"/>
      <point x="-31.96078431372549" y="25.392156862745097"/>
      <point x="45.568627450980394" y="-14.098039215686274"/>
      <point x="126.03921568627452" y="-14.098039215686274" type="curve" smooth="yes"/>
      <point x="190.64705882352942" y="-14.098039215686274"/>
      <point x="242.921568627451" y="11.76470588235294"/>
      <point x="277.05882352941177" y="59.76470588235294" type="curve"/>
      <point x="308.98039215686276" y="28.49019607843137"/>
      <point x="353.078431372549" y="-14.0"/>
    </contour>
    <contour>
      <point x="117.70588235294117" y="78.2156862745098" type="curve" smooth="yes"/>
      <point x="86.45098039215686" y="78.2156862745098"/>
      <point x="69.0" y="95.92156862745098"/>
      <point x="69.0" y="122.62745098039215" type="curve" smooth="yes"/>
      <point x="69.0" y="152.62745098039215"/>
      <point x="91.90196078431373" y="166.7843137254902"/>
      <point x="119.25490196078431" y="166.7843137254902" type="curve" smooth="yes"/>
      <point x="145.15686274509804" y="166.7843137254902"/>
      <point x="164.7058823529412" y="156.23529411764707"/>
      <point x="180.50980392156862" y="139.7843137254902" type="curve"/>
      <point x="171.86274509803923" y="112.19607843137256"/>
      <point x="153.66666666666666" y="78.2156862745098"/>
    </contour>
  </outline>
</glyph>
<glyph name="uni1BB9" format="2">
  <advance width="786.1764705882352"/>
  <unicode hex="1BB9"/>
  <outline>
    <contour>
      <point x="57.17647058823529" y="0.0" type="line"/>
      <point x="671.7843137254902" y="0.0" type="line"/>
      <point x="699.1176470588235" y="78.70588235294117" type="line"/>
      <point x="599.0588235294117" y="165.31372549019608" type="line" smooth="yes"/>
      <point x="566.2352941176471" y="192.84313725490196"/>
      <point x="532.5882352941177" y="222.49019607843138"/>
      <point x="532.5882352941177" y="237.64705882352942" type="curve" smooth="yes"/>
      <point x="532.5882352941177" y="249.35294117647058"/>
      <point x="539.1372549019608" y="263.2156862745098"/>
      <point x="578.1372549019608" y="263.2156862745098" type="curve" smooth="yes"/>
      <point x="742.4509803921569" y="263.2156862745098" type="line"/>
      <point x="782.7254901960785" y="383.94117647058823" type="line"/>
      <point x="551.3333333333334" y="383.94117647058823" type="line" smooth="yes"/>
      <point x="431.27450980392155" y="383.94117647058823"/>
      <point x="386.2352941176471" y="330.0980392156863"/>
      <point x="386.2352941176471" y="262.05882352941177" type="curve" smooth="yes"/>
      <point x="386.2352941176471" y="223.54901960784315"/>
      <point x="410.6470588235294" y="189.3921568627451"/>
      <point x="437.0" y="163.19607843137254" type="curve" smooth="yes"/>
      <point x="480.98039215686276" y="120.1764705882353" type="line"/>
      <point x="247.7058823529412" y="120.1764705882353" type="line"/>
      <point x="403.15686274509807" y="591.0784313725491" type="line"/>
      <point x="483.15686274509807" y="591.0784313725491" type="line"/>
      <point x="502.15686274509807" y="544.0784313725491" type="line"/>
      <point x="639.8235294117648" y="544.0784313725491" type="line"/>
      <point x="583.4509803921569" y="714.0" type="line"/>
      <point x="122.56862745098039" y="714.0" type="line"/>
      <point x="63.29411764705882" y="530.0784313725491" type="line"/>
      <point x="183.19607843137254" y="530.0784313725491" type="line"/>
      <point x="202.7450980392157" y="591.0784313725491" type="line"/>
      <point x="251.90196078431373" y="591.0784313725491" type="line"/>
    </contour>
  </outline>
</glyph>
<glyph name="uni1BBA" format="2">
  <advance width="391.45098039215685"/>
  <unicode hex="1BBA"/>
  <outline>
    <contour>
      <point x="54.529411764705884" y="0.0" type="line"/>
      <point x="200.84313725490196" y="0.0" type="line"/>
      <point x="437.843137254902" y="714.0" type="line"/>
      <point x="152.41176470588235" y="714.0" type="line"/>
      <point x="112.13725490196079" y="591.0784313725491" type="line"/>
      <point x="249.80392156862746" y="591.0784313725491" type="line"/>
      <point x="230.70588235294116" y="532.2352941176471" type="line"/>
      <point x="98.98039215686275" y="532.2352941176471" type="line"/>
      <point x="58.15686274509804" y="409.3137254901961" type="line"/>
      <point x="190.4313725490196" y="409.3137254901961" type="line"/>
    </contour>
  </outline>
</glyph>
<glyph name="uni1BBB" format="2">
  <advance width="796.5490196078431"/>
  <unicode hex="1BBB"/>
  <outline>
    <contour>
      <point x="127.88235294117646" y="185.7058823529412" type="line"/>
      <point x="666.3725490196078" y="185.7058823529412" type="line"/>
      <point x="841.1372549019608" y="714.0" type="line"/>
      <point x="508.5882352941177" y="714.0" type="line"/>
      <point x="467.7647058823529" y="591.0784313725491" type="line"/>
      <point x="655.843137254902" y="591.0784313725491" type="line"/>
      <point x="563.7254901960785" y="310.8235294117647" type="line"/>
      <point x="311.62745098039215" y="310.8235294117647" type="line"/>
      <point x="445.5686274509804" y="714.0" type="line"/>
      <point x="114.76470588235294" y="714.0" type="line"/>
      <point x="73.94117647058823" y="591.0784313725491" type="line"/>
      <point x="260.8235294117647" y="591.0784313725491" type="line"/>
    </contour>
    <contour>
      <point x="65.6470588235294" y="0.0" type="line"/>
      <point x="604.1372549019608" y="0.0" type="line"/>
      <point x="645.5098039215686" y="124.56862745098039" type="line"/>
      <point x="107.01960784313725" y="124.56862745098039" type="line"/>
    </contour>
  </outline>
</glyph>
<glyph name="uni1BBC" format="2">
  <advance width="1310.1176470588234"/>
  <unicode hex="1BBC"/>
  <outline>
    <contour>
      <point x="738.2352941176471" y="-339.7843137254902" type="curve" smooth="yes"/>
      <point x="807.0196078431372" y="-339.7843137254902"/>
      <point x="857.9019607843137" y="-306.5882352941177"/>
      <point x="879.7450980392157" y="-274.7843137254902" type="curve"/>
      <point x="907.5882352941177" y="-301.98039215686276"/>
      <point x="967.7843137254902" y="-338.4313725490196"/>
      <point x="1039.4117647058824" y="-338.4313725490196" type="curve" smooth="yes"/>
      <point x="1229.3921568627452" y="-338.4313725490196"/>
      <point x="1259.4901960784314" y="-70.82352941176471"/>
      <point x="1265.137254901961" y="91.52941176470588" type="curve"/>
      <point x="1137.0588235294117" y="91.52941176470588" type="line"/>
      <point x="1137.0588235294117" y="67.52941176470588"/>
      <point x="1137.0588235294117" y="29.803921568627448"/>
      <point x="1133.9607843137255" y="-1.9803921568627487" type="curve" smooth="yes"/>
      <point x="1123.0588235294117" y="-115.01960784313725"/>
      <point x="1097.235294117647" y="-210.05882352941177"/>
      <point x="1040.5098039215686" y="-210.05882352941177" type="curve" smooth="yes"/>
      <point x="1005.7058823529412" y="-210.05882352941177"/>
      <point x="967.9019607843137" y="-178.19607843137254"/>
      <point x="945.156862745098" y="-154.35294117647058" type="curve"/>
      <point x="1247.235294117647" y="714.0" type="line"/>
      <point x="873.5686274509804" y="714.0" type="line"/>
      <point x="831.6470588235294" y="591.6274509803922" type="line"/>
      <point x="1058.9019607843138" y="591.6274509803922" type="line"/>
      <point x="829.6274509803922" y="-66.7843137254902" type="line"/>
      <point x="806.1764705882354" y="-48.431372549019606"/>
      <point x="771.2352941176471" y="-36.07843137254902"/>
      <point x="735.2352941176471" y="-36.07843137254902" type="curve" smooth="yes"/>
      <point x="627.4705882352941" y="-36.07843137254902"/>
      <point x="569.9411764705883" y="-112.41176470588235"/>
      <point x="569.9411764705883" y="-192.72549019607843" type="curve" smooth="yes"/>
      <point x="569.9411764705883" y="-287.1764705882353"/>
      <point x="644.843137254902" y="-339.7843137254902"/>
    </contour>
    <contour>
      <point x="729.9411764705883" y="-243.8235294117647" type="curve" smooth="yes"/>
      <point x="700.5882352941177" y="-243.8235294117647"/>
      <point x="678.5882352941177" y="-224.921568627451"/>
      <point x="678.5882352941177" y="-193.921568627451" type="curve" smooth="yes"/>
      <point x="678.5882352941177" y="-160.8235294117647"/>
      <point x="700.3921568627451" y="-141.47058823529412"/>
      <point x="731.3921568627451" y="-141.47058823529412" type="curve" smooth="yes"/>
      <point x="765.4901960784314" y="-141.47058823529412"/>
      <point x="781.686274509804" y="-166.72549019607843"/>
      <point x="788.5882352941177" y="-182.8235294117647" type="curve"/>
      <point x="783.5882352941177" y="-213.37254901960785"/>
      <point x="762.4901960784314" y="-243.8235294117647"/>
    </contour>
    <contour>
      <point x="-22.0" y="0.0" type="line"/>
      <point x="441.5882352941177" y="0.0" type="line"/>
      <point x="528.5490196078431" y="269.1764705882353" type="line"/>
      <point x="620.8039215686274" y="0.0" type="line"/>
      <point x="770.7058823529412" y="0.0" type="line"/>
      <point x="625.6078431372549" y="416.7450980392157" type="line"/>
      <point x="441.37254901960785" y="416.7450980392157" type="line"/>
      <point x="340.3921568627451" y="125.11764705882354" type="line"/>
      <point x="164.68627450980392" y="125.11764705882354" type="line"/>
      <point x="318.5882352941177" y="591.0784313725491" type="line"/>
      <point x="562.7647058823529" y="591.0784313725491" type="line"/>
      <point x="600.2941176470588" y="714.0" type="line"/>
      <point x="214.0" y="714.0" type="line"/>
    </contour>
  </outline>
</glyph>
<glyph name="uni1BBD" format="2">
  <advance width="1317.8823529411766"/>
  <unicode hex="1BBD"/>
  <outline>
    <contour>
      <point x="114.74509803921569" y="0.0" type="line"/>
      <point x="979.2156862745098" y="0.0" type="line"/>
      <point x="1018.9411764705883" y="117.43137254901961" type="line"/>
      <point x="809.6666666666666" y="117.43137254901961" type="line"/>
      <point x="966.313725490196" y="591.0784313725491" type="line"/>
      <point x="1181.2156862745098" y="591.0784313725491" type="line"/>
      <point x="1110.235294117647" y="374.52941176470586" type="line"/>
      <point x="1005.156862745098" y="374.52941176470586" type="line"/>
      <point x="963.7843137254902" y="251.6078431372549" type="line"/>
      <point x="1209.686274509804" y="251.6078431372549" type="line"/>
      <point x="1362.6666666666667" y="714.0" type="line"/>
      <point x="860.8235294117648" y="714.0" type="line"/>
      <point x="664.5490196078431" y="117.43137254901961" type="line"/>
      <point x="500.9019607843137" y="117.43137254901961" type="line"/>
      <point x="699.1764705882352" y="714.0" type="line"/>
      <point x="195.98039215686273" y="714.0" type="line"/>
      <point x="42.647058823529406" y="247.54901960784315" type="line"/>
      <point x="277.3529411764706" y="247.54901960784315" type="line"/>
      <point x="318.1764705882353" y="370.47058823529414" type="line"/>
      <point x="223.19607843137254" y="370.47058823529414" type="line"/>
      <point x="296.98039215686276" y="591.0784313725491" type="line"/>
      <point x="511.2352941176471" y="591.0784313725491" type="line"/>
      <point x="354.6862745098039" y="117.43137254901961" type="line"/>
      <point x="154.47058823529412" y="117.43137254901961" type="line"/>
    </contour>
  </outline>
</glyph>
<glyph name="uni1BBE" format="2">
  <advance width="1078.2941176470588"/>
  <unicode hex="1BBE"/>
  <outline>
    <contour>
      <point x="38.31372549019608" y="0.0" type="line"/>
      <point x="1043.686274509804" y="0.0" type="line"/>
      <point x="1081.2156862745098" y="117.43137254901961" type="line"/>
      <point x="885.6470588235294" y="117.43137254901961" type="line"/>
      <point x="1084.1176470588234" y="714.0" type="line"/>
      <point x="619.2156862745098" y="714.0" type="line"/>
      <point x="578.9411764705883" y="591.0784313725491" type="line"/>
      <point x="901.0196078431372" y="591.0784313725491" type="line"/>
      <point x="743.8235294117648" y="117.43137254901961" type="line"/>
      <point x="373.7450980392157" y="117.43137254901961" type="line"/>
      <point x="572.2156862745098" y="714.0" type="line"/>
      <point x="105.80392156862744" y="714.0" type="line"/>
      <point x="64.98039215686275" y="591.0784313725491" type="line"/>
      <point x="389.11764705882354" y="591.0784313725491" type="line"/>
      <point x="232.47058823529412" y="117.43137254901961" type="line"/>
      <point x="75.84313725490196" y="117.43137254901961" type="line"/>
    </contour>
    <contour>
      <point x="99.2156862745098" y="186.98039215686273" type="line"/>
      <point x="204.1764705882353" y="186.98039215686273" type="line"/>
      <point x="313.84313725490193" y="516.3333333333334" type="line"/>
      <point x="80.52941176470588" y="516.3333333333334" type="line"/>
      <point x="45.647058823529406" y="413.88235294117646" type="line"/>
      <point x="174.0" y="413.88235294117646" type="line"/>
    </contour>
    <contour>
      <point x="611.1176470588235" y="186.98039215686273" type="line"/>
      <point x="716.0784313725491" y="186.98039215686273" type="line"/>
      <point x="825.7450980392157" y="516.3333333333334" type="line"/>
      <point x="592.4313725490196" y="516.3333333333334" type="line"/>
      <point x="557.5490196078431" y="413.88235294117646" type="line"/>
      <point x="685.9019607843137" y="413.88235294117646" type="line"/>
    </contour>
  </outline>
</glyph>
<glyph name="uni1BBF" format="2">
  <advance width="731.3921568627451"/>
  <unicode hex="1BBF"/>
  <outline>
    <contour>
      <point x="394.05882352941177" y="0.0" type="line"/>
      <point x="537.5294117647059" y="0.0" type="line"/>
      <point x="775.5294117647059" y="714.0" type="line"/>
      <point x="138.0" y="714.0" type="line"/>
      <point x="97.17647058823529" y="591.0784313725491" type="line"/>
      <point x="593.2352941176471" y="591.0784313725491" type="line"/>
    </contour>
    <contour>
      <point x="105.96078431372548" y="21.784313725490193" type="line"/>
      <point x="335.98039215686276" y="21.784313725490193" type="line"/>
      <point x="371.8627450980392" y="130.98039215686273" type="line"/>
      <point x="141.84313725490196" y="130.98039215686273" type="line"/>
    </contour>
    <contour>
      <point x="102.11764705882354" y="208.80392156862746" type="line"/>
      <point x="397.1372549019608" y="208.80392156862746" type="line"/>
      <point x="433.01960784313724" y="318.0" type="line"/>
      <point x="138.0" y="318.0" type="line"/>
    </contour>
    <contour>
      <point x="97.72549019607843" y="395.8235294117647" type="line"/>
      <point x="457.7450980392157" y="395.8235294117647" type="line"/>
      <point x="494.1764705882353" y="505.01960784313724" type="line"/>
      <point x="134.15686274509804" y="505.01960784313724" type="line"/>
    </contour>
  </outline>
</glyph>
<glyph name="uni1CC0" format="2">
  <advance width="1028.9803921568628"/>
  <unicode hex="1CC0"/>
  <outline>
    <contour>
      <point x="366.2156862745098" y="-123.98039215686275" type="line"/>
      <point x="441.4901960784314" y="-123.98039215686275" type="line"/>
      <point x="513.4901960784314" y="-32.98039215686275" type="line"/>
      <point x="585.4901960784314" y="-123.98039215686275" type="line"/>
      <point x="660.7647058823529" y="-123.98039215686275" type="line"/>
      <point x="575.7647058823529" y="-15.980392156862745" type="line"/>
      <point x="575.7647058823529" y="63.98039215686275" type="line"/>
      <point x="688.3725490196078" y="85.62745098039215"/>
      <point x="784.8627450980392" y="183.11764705882354"/>
      <point x="806.5098039215686" y="296.72549019607845" type="curve"/>
      <point x="886.4705882352941" y="296.72549019607845" type="line"/>
      <point x="994.4705882352941" y="211.72549019607843" type="line"/>
      <point x="994.4705882352941" y="287.0" type="line"/>
      <point x="903.4705882352941" y="359.0" type="line"/>
      <point x="994.4705882352941" y="431.0" type="line"/>
      <point x="994.4705882352941" y="506.27450980392155" type="line"/>
      <point x="886.4705882352941" y="421.27450980392155" type="line"/>
      <point x="806.5098039215686" y="421.27450980392155" type="line"/>
      <point x="784.8627450980392" y="534.8823529411765"/>
      <point x="688.3725490196078" y="630.3725490196078"/>
      <point x="575.7647058823529" y="652.0196078431372" type="curve"/>
      <point x="575.7647058823529" y="731.9803921568628" type="line"/>
      <point x="660.7647058823529" y="839.9803921568628" type="line"/>
      <point x="585.4901960784314" y="839.9803921568628" type="line"/>
      <point x="513.4901960784314" y="749.5294117647059" type="line"/>
      <point x="441.4901960784314" y="839.9803921568628" type="line"/>
      <point x="366.2156862745098" y="839.9803921568628" type="line"/>
      <point x="451.2156862745098" y="731.9803921568628" type="line"/>
      <point x="451.2156862745098" y="652.0196078431372" type="line"/>
      <point x="338.6078431372549" y="630.3725490196078"/>
      <point x="240.11764705882354" y="534.8823529411765"/>
      <point x="218.47058823529412" y="421.27450980392155" type="curve"/>
      <point x="138.50980392156862" y="421.27450980392155" type="line"/>
      <point x="30.509803921568626" y="506.27450980392155" type="line"/>
      <point x="30.509803921568626" y="431.0" type="line"/>
      <point x="121.50980392156863" y="359.0" type="line"/>
      <point x="30.509803921568626" y="287.0" type="line"/>
      <point x="30.509803921568626" y="211.72549019607843" type="line"/>
      <point x="138.50980392156862" y="296.72549019607845" type="line"/>
      <point x="218.47058823529412" y="296.72549019607845" type="line"/>
      <point x="240.11764705882354" y="183.11764705882354"/>
      <point x="338.6078431372549" y="85.62745098039215"/>
      <point x="451.2156862745098" y="63.98039215686275" type="curve"/>
      <point x="451.2156862745098" y="-15.980392156862745" type="line"/>
    </contour>
    <contour>
      <point x="513.4901960784314" y="165.52941176470588" type="curve" smooth="yes"/>
      <point x="408.52941176470586" y="165.52941176470588"/>
      <point x="319.01960784313724" y="253.0392156862745"/>
      <point x="319.01960784313724" y="358.0" type="curve" smooth="yes"/>
      <point x="319.01960784313724" y="462.96078431372547"/>
      <point x="408.52941176470586" y="550.4705882352941"/>
      <point x="513.4901960784314" y="550.4705882352941" type="curve" smooth="yes"/>
      <point x="618.4509803921569" y="550.4705882352941"/>
      <point x="704.9607843137255" y="462.96078431372547"/>
      <point x="704.9607843137255" y="358.0" type="curve" smooth="yes"/>
      <point x="704.9607843137255" y="253.0392156862745"/>
      <point x="618.4509803921569" y="165.52941176470588"/>
    </contour>
    <contour>
      <point x="513.4901960784314" y="256.70588235294116" type="curve" smooth="yes"/>
      <point x="568.1372549019608" y="256.70588235294116"/>
      <point x="614.7843137254902" y="303.3529411764706"/>
      <point x="614.7843137254902" y="358.0" type="curve" smooth="yes"/>
      <point x="614.7843137254902" y="412.6470588235294"/>
      <point x="568.1372549019608" y="459.29411764705884"/>
      <point x="513.4901960784314" y="459.29411764705884" type="curve" smooth="yes"/>
      <point x="458.843137254902" y="459.29411764705884"/>
      <point x="412.19607843137254" y="412.6470588235294"/>
      <point x="412.19607843137254" y="358.0" type="curve" smooth="yes"/>
      <point x="412.19607843137254" y="303.3529411764706"/>
      <point x="458.843137254902" y="256.70588235294116"/>
    </contour>
    <contour>
      <point x="513.4901960784314" y="315.19607843137254" type="curve" smooth="yes"/>
      <point x="489.5882352941176" y="315.19607843137254"/>
      <point x="470.6862745098039" y="334.0980392156863"/>
      <point x="470.6862745098039" y="358.0" type="curve" smooth="yes"/>
      <point x="470.6862745098039" y="381.9019607843137"/>
      <point x="489.5882352941176" y="400.80392156862746"/>
      <point x="513.4901960784314" y="400.80392156862746" type="curve" smooth="yes"/>
      <point x="537.3921568627451" y="400.80392156862746"/>
      <point x="556.2941176470588" y="381.9019607843137"/>
      <point x="556.2941176470588" y="358.0" type="curve" smooth="yes"/>
      <point x="556.2941176470588" y="334.0980392156863"/>
      <point x="537.3921568627451" y="315.19607843137254"/>
    </contour>
  </outline>
</glyph>
<glyph name="uni1CC1" format="2">
  <advance width="674.0"/>
  <unicode hex="1CC1"/>
  <outline>
    <contour>
      <point x="344.0" y="65.07843137254902" type="curve" smooth="yes"/>
      <point x="505.7843137254902" y="65.07843137254902"/>
      <point x="636.9215686274509" y="196.2156862745098"/>
      <point x="636.9215686274509" y="358.0" type="curve" smooth="yes"/>
      <point x="636.9215686274509" y="519.7843137254902"/>
      <point x="505.7843137254902" y="650.9215686274509"/>
      <point x="344.0" y="650.9215686274509" type="curve" smooth="yes"/>
      <point x="182.2156862745098" y="650.9215686274509"/>
      <point x="51.07843137254902" y="519.7843137254902"/>
      <point x="51.07843137254902" y="358.0" type="curve" smooth="yes"/>
      <point x="51.07843137254902" y="196.2156862745098"/>
      <point x="182.2156862745098" y="65.07843137254902"/>
    </contour>
    <contour>
      <point x="181.7450980392157" y="252.72549019607843" type="line"/>
      <point x="162.23529411764707" y="282.4313725490196"/>
      <point x="149.88235294117646" y="318.4901960784314"/>
      <point x="149.88235294117646" y="358.0" type="curve" smooth="yes"/>
      <point x="149.88235294117646" y="400.9019607843137"/>
      <point x="163.88235294117646" y="436.4117647058824"/>
      <point x="181.2941176470588" y="461.72549019607845" type="curve"/>
      <point x="286.01960784313724" y="357.0" type="line"/>
    </contour>
    <contour>
      <point x="344.0" y="165.52941176470588" type="curve" smooth="yes"/>
      <point x="305.03921568627453" y="165.52941176470588"/>
      <point x="268.4313725490196" y="177.33333333333334"/>
      <point x="239.8235294117647" y="196.84313725490196" type="curve"/>
      <point x="343.0" y="300.01960784313724" type="line"/>
      <point x="446.62745098039215" y="196.3921568627451" type="line"/>
      <point x="418.01960784313724" y="177.33333333333334"/>
      <point x="381.96078431372547" y="165.52941176470588"/>
    </contour>
    <contour>
      <point x="343.0" y="413.98039215686276" type="line"/>
      <point x="238.27450980392157" y="518.7058823529412" type="line"/>
      <point x="268.4313725490196" y="538.2156862745098"/>
      <point x="304.4901960784314" y="550.4705882352941"/>
      <point x="344.0" y="550.4705882352941" type="curve" smooth="yes"/>
      <point x="382.5098039215686" y="550.4705882352941"/>
      <point x="418.5686274509804" y="538.2156862745098"/>
      <point x="448.1764705882353" y="519.156862745098" type="curve"/>
    </contour>
    <contour>
      <point x="503.6078431372549" y="253.37254901960785" type="curve"/>
      <point x="399.98039215686276" y="357.0" type="line"/>
      <point x="504.6078431372549" y="461.62745098039215" type="line"/>
      <point x="523.1176470588235" y="432.01960784313724"/>
      <point x="535.3725490196078" y="395.96078431372547"/>
      <point x="535.3725490196078" y="358.0" type="curve" smooth="yes"/>
      <point x="535.3725490196078" y="319.03921568627453"/>
      <point x="523.1176470588235" y="282.98039215686276"/>
    </contour>
  </outline>
</glyph>
<glyph name="uni1CC2" format="2">
  <advance width="674.0"/>
  <unicode hex="1CC2"/>
  <outline>
    <contour>
      <point x="344.0" y="65.07843137254902" type="curve" smooth="yes"/>
      <point x="505.7843137254902" y="65.07843137254902"/>
      <point x="636.9215686274509" y="196.2156862745098"/>
      <point x="636.9215686274509" y="358.0" type="curve" smooth="yes"/>
      <point x="636.9215686274509" y="519.7843137254902"/>
      <point x="505.7843137254902" y="650.9215686274509"/>
      <point x="344.0" y="650.9215686274509" type="curve" smooth="yes"/>
      <point x="182.2156862745098" y="650.9215686274509"/>
      <point x="51.07843137254902" y="519.7843137254902"/>
      <point x="51.07843137254902" y="358.0" type="curve" smooth="yes"/>
      <point x="51.07843137254902" y="196.2156862745098"/>
      <point x="182.2156862745098" y="65.07843137254902"/>
    </contour>
    <contour>
      <point x="344.0" y="165.52941176470588" type="curve" smooth="yes"/>
      <point x="295.7450980392157" y="165.52941176470588"/>
      <point x="256.3333333333333" y="183.4313725490196"/>
      <point x="225.27450980392157" y="206.84313725490196" type="curve"/>
      <point x="245.52941176470588" y="223.19607843137254"/>
      <point x="289.7843137254902" y="246.35294117647058"/>
      <point x="344.0" y="246.35294117647058" type="curve" smooth="yes"/>
      <point x="398.2156862745098" y="246.35294117647058"/>
      <point x="441.47058823529414" y="223.19607843137254"/>
      <point x="461.72549019607845" y="206.84313725490196" type="curve"/>
      <point x="431.6666666666667" y="183.4313725490196"/>
      <point x="391.2549019607843" y="165.52941176470588"/>
    </contour>
    <contour>
      <point x="171.7450980392157" y="270.01960784313724" type="curve"/>
      <point x="159.23529411764707" y="293.88235294117646"/>
      <point x="149.88235294117646" y="324.4901960784314"/>
      <point x="149.88235294117646" y="358.0" type="curve" smooth="yes"/>
      <point x="149.88235294117646" y="391.05882352941177"/>
      <point x="159.23529411764707" y="422.11764705882354"/>
      <point x="171.7450980392157" y="445.98039215686276" type="curve"/>
      <point x="203.19607843137254" y="422.62745098039215"/>
      <point x="267.3921568627451" y="388.27450980392155"/>
      <point x="344.0" y="388.27450980392155" type="curve" smooth="yes"/>
      <point x="420.6078431372549" y="388.27450980392155"/>
      <point x="482.05882352941177" y="422.62745098039215"/>
      <point x="513.6078431372549" y="445.98039215686276" type="curve"/>
      <point x="527.1176470588235" y="419.37254901960785"/>
      <point x="535.3725490196078" y="391.05882352941177"/>
      <point x="535.3725490196078" y="358.0" type="curve" smooth="yes"/>
      <point x="535.3725490196078" y="324.4901960784314"/>
      <point x="527.1176470588235" y="296.62745098039215"/>
      <point x="513.6078431372549" y="270.01960784313724" type="curve"/>
      <point x="482.05882352941177" y="292.921568627451"/>
      <point x="420.6078431372549" y="327.72549019607845"/>
      <point x="344.0" y="327.72549019607845" type="curve" smooth="yes"/>
      <point x="267.3921568627451" y="327.72549019607845"/>
      <point x="203.19607843137254" y="292.921568627451"/>
    </contour>
    <contour>
      <point x="344.0" y="469.6470588235294" type="curve" smooth="yes"/>
      <point x="289.7843137254902" y="469.6470588235294"/>
      <point x="245.52941176470588" y="492.80392156862746"/>
      <point x="225.27450980392157" y="508.70588235294116" type="curve"/>
      <point x="256.3333333333333" y="532.5686274509804"/>
      <point x="295.7450980392157" y="550.4705882352941"/>
      <point x="344.0" y="550.4705882352941" type="curve" smooth="yes"/>
      <point x="391.2549019607843" y="550.4705882352941"/>
      <point x="431.6666666666667" y="532.5686274509804"/>
      <point x="461.72549019607845" y="508.70588235294116" type="curve"/>
      <point x="441.47058823529414" y="492.80392156862746"/>
      <point x="398.2156862745098" y="469.6470588235294"/>
    </contour>
  </outline>
</glyph>
<glyph name="uni1CC3" format="2">
  <advance width="674.0"/>
  <unicode hex="1CC3"/>
  <outline>
    <contour>
      <point x="344.0" y="65.07843137254902" type="curve" smooth="yes"/>
      <point x="505.7843137254902" y="65.07843137254902"/>
      <point x="636.9215686274509" y="196.2156862745098"/>
      <point x="636.9215686274509" y="358.0" type="curve" smooth="yes"/>
      <point x="636.9215686274509" y="519.7843137254902"/>
      <point x="505.7843137254902" y="650.9215686274509"/>
      <point x="344.0" y="650.9215686274509" type="curve" smooth="yes"/>
      <point x="182.2156862745098" y="650.9215686274509"/>
      <point x="51.07843137254902" y="519.7843137254902"/>
      <point x="51.07843137254902" y="358.0" type="curve" smooth="yes"/>
      <point x="51.07843137254902" y="196.2156862745098"/>
      <point x="182.2156862745098" y="65.07843137254902"/>
    </contour>
    <contour>
      <point x="344.0" y="165.52941176470588" type="curve" smooth="yes"/>
      <point x="238.58823529411765" y="165.52941176470588"/>
      <point x="151.52941176470588" y="252.58823529411765"/>
      <point x="151.52941176470588" y="358.0" type="curve" smooth="yes"/>
      <point x="151.52941176470588" y="463.4117647058824"/>
      <point x="238.58823529411765" y="550.4705882352941"/>
      <point x="344.0" y="550.4705882352941" type="curve" smooth="yes"/>
      <point x="449.4117647058824" y="550.4705882352941"/>
      <point x="536.4705882352941" y="463.4117647058824"/>
      <point x="536.4705882352941" y="358.0" type="curve" smooth="yes"/>
      <point x="536.4705882352941" y="252.58823529411765"/>
      <point x="449.4117647058824" y="165.52941176470588"/>
    </contour>
  </outline>
</glyph>
<glyph name="uni1CC4" format="2">
  <advance width="1918.2745098039215"/>
  <unicode hex="1CC4"/>
  <outline>
    <contour>
      <point x="1093.549019607843" y="-339.7843137254902" type="curve" smooth="yes"/>
      <point x="1162.3333333333333" y="-339.7843137254902"/>
      <point x="1213.2156862745098" y="-306.5882352941177"/>
      <point x="1235.0588235294117" y="-274.7843137254902" type="curve"/>
      <point x="1262.9019607843138" y="-301.98039215686276"/>
      <point x="1323.0980392156862" y="-338.4313725490196"/>
      <point x="1394.7254901960785" y="-338.4313725490196" type="curve" smooth="yes"/>
      <point x="1486.3529411764707" y="-338.4313725490196"/>
      <point x="1541.6274509803923" y="-272.94117647058823"/>
      <point x="1574.5098039215686" y="-211.76470588235293" type="curve"/>
      <point x="1480.7058823529412" y="-143.2156862745098" type="line"/>
      <point x="1454.921568627451" y="-181.2549019607843"/>
      <point x="1433.8823529411766" y="-210.05882352941177"/>
      <point x="1395.8235294117646" y="-210.05882352941177" type="curve" smooth="yes"/>
      <point x="1361.0196078431372" y="-210.05882352941177"/>
      <point x="1323.2156862745098" y="-178.19607843137254"/>
      <point x="1300.4705882352941" y="-154.35294117647058" type="curve"/>
      <point x="1591.5686274509803" y="714.0" type="line"/>
      <point x="1235.4705882352941" y="714.0" type="line"/>
      <point x="1193.549019607843" y="592.1764705882352" type="line"/>
      <point x="1404.3333333333333" y="592.1764705882352" type="line"/>
      <point x="1184.9411764705883" y="-66.7843137254902" type="line"/>
      <point x="1161.4901960784314" y="-48.431372549019606"/>
      <point x="1126.549019607843" y="-36.07843137254902"/>
      <point x="1090.549019607843" y="-36.07843137254902" type="curve" smooth="yes"/>
      <point x="982.7843137254902" y="-36.07843137254902"/>
      <point x="925.2549019607843" y="-112.41176470588235"/>
      <point x="925.2549019607843" y="-192.72549019607843" type="curve" smooth="yes"/>
      <point x="925.2549019607843" y="-287.1764705882353"/>
      <point x="1000.1568627450981" y="-339.7843137254902"/>
    </contour>
    <contour>
      <point x="-22.0" y="0.0" type="line"/>
      <point x="441.5882352941177" y="0.0" type="line"/>
      <point x="528.5490196078431" y="269.1764705882353" type="line"/>
      <point x="620.8039215686274" y="0.0" type="line"/>
      <point x="770.7058823529412" y="0.0" type="line"/>
      <point x="625.6078431372549" y="416.7450980392157" type="line"/>
      <point x="441.37254901960785" y="416.7450980392157" type="line"/>
      <point x="340.3921568627451" y="125.11764705882354" type="line"/>
      <point x="164.68627450980392" y="125.11764705882354" type="line"/>
      <point x="319.1372549019608" y="592.7254901960785" type="line"/>
      <point x="563.3137254901961" y="592.7254901960785" type="line"/>
      <point x="600.2941176470588" y="714.0" type="line"/>
      <point x="214.0" y="714.0" type="line"/>
    </contour>
    <contour>
      <point x="1085.2549019607843" y="-243.8235294117647" type="curve" smooth="yes"/>
      <point x="1055.9019607843138" y="-243.8235294117647"/>
      <point x="1033.9019607843138" y="-224.921568627451"/>
      <point x="1033.9019607843138" y="-193.921568627451" type="curve" smooth="yes"/>
      <point x="1033.9019607843138" y="-160.8235294117647"/>
      <point x="1055.7058823529412" y="-141.47058823529412"/>
      <point x="1086.7058823529412" y="-141.47058823529412" type="curve" smooth="yes"/>
      <point x="1120.8039215686274" y="-141.47058823529412"/>
      <point x="1137.0" y="-166.72549019607843"/>
      <point x="1143.9019607843138" y="-182.8235294117647" type="curve"/>
      <point x="1138.9019607843138" y="-213.37254901960785"/>
      <point x="1117.8039215686274" y="-243.8235294117647"/>
    </contour>
    <contour>
      <point x="817.9607843137255" y="19.588235294117645" type="line"/>
      <point x="1117.3529411764707" y="19.588235294117645" type="line"/>
      <point x="1158.1764705882354" y="141.41176470588235" type="line"/>
      <point x="858.7843137254902" y="141.41176470588235" type="line"/>
    </contour>
    <contour>
      <point x="757.4117647058823" y="210.45098039215685" type="line"/>
      <point x="1181.1568627450981" y="210.45098039215685" type="line"/>
      <point x="1221.9803921568628" y="332.27450980392155" type="line"/>
      <point x="798.2352941176471" y="332.27450980392155" type="line"/>
    </contour>
    <contour>
      <point x="700.6078431372549" y="401.3137254901961" type="line"/>
      <point x="1243.2549019607843" y="401.3137254901961" type="line"/>
      <point x="1283.5294117647059" y="523.1372549019608" type="line"/>
      <point x="740.8823529411765" y="523.1372549019608" type="line"/>
    </contour>
    <contour>
      <point x="618.0980392156863" y="592.7254901960785" type="line"/>
      <point x="1130.372549019608" y="592.7254901960785" type="line"/>
      <point x="1170.6470588235295" y="714.0" type="line"/>
      <point x="658.3725490196078" y="714.0" type="line"/>
    </contour>
    <contour>
      <point x="1465.0" y="20.137254901960784" type="line"/>
      <point x="1742.4313725490197" y="20.137254901960784" type="line"/>
      <point x="1782.7058823529412" y="141.41176470588235" type="line"/>
      <point x="1505.2745098039215" y="141.41176470588235" type="line"/>
    </contour>
    <contour>
      <point x="1528.8039215686274" y="211.0" type="line"/>
      <point x="1806.235294117647" y="211.0" type="line"/>
      <point x="1846.5098039215686" y="332.27450980392155" type="line"/>
      <point x="1569.078431372549" y="332.27450980392155" type="line"/>
    </contour>
    <contour>
      <point x="1592.6078431372548" y="401.8627450980392" type="line"/>
      <point x="1870.0392156862745" y="401.8627450980392" type="line"/>
      <point x="1910.313725490196" y="523.1372549019608" type="line"/>
      <point x="1632.8823529411766" y="523.1372549019608" type="line"/>
    </contour>
    <contour>
      <point x="1653.8627450980393" y="592.7254901960785" type="line"/>
      <point x="1931.2941176470588" y="592.7254901960785" type="line"/>
      <point x="1971.5686274509803" y="714.0" type="line"/>
      <point x="1694.137254901961" y="714.0" type="line"/>
    </contour>
  </outline>
</glyph>
<glyph name="uni1CC5" format="2">
  <advance width="790.1176470588235"/>
  <unicode hex="1CC5"/>
  <outline>
    <contour>
      <point x="69.13725490196079" y="0.0" type="line"/>
      <point x="214.80392156862746" y="0.0" type="line"/>
      <point x="452.80392156862746" y="714.0" type="line"/>
      <point x="98.90196078431373" y="714.0" type="line"/>
      <point x="58.07843137254902" y="591.0784313725491" type="line"/>
      <point x="268.3137254901961" y="591.0784313725491" type="line"/>
    </contour>
    <contour>
      <point x="328.3333333333333" y="20.137254901960784" type="line"/>
      <point x="605.7647058823529" y="20.137254901960784" type="line"/>
      <point x="646.0392156862745" y="141.41176470588235" type="line"/>
      <point x="368.6078431372549" y="141.41176470588235" type="line"/>
    </contour>
    <contour>
      <point x="392.1372549019608" y="211.0" type="line"/>
      <point x="669.5686274509804" y="211.0" type="line"/>
      <point x="709.843137254902" y="332.27450980392155" type="line"/>
      <point x="432.4117647058824" y="332.27450980392155" type="line"/>
    </contour>
    <contour>
      <point x="455.94117647058823" y="401.8627450980392" type="line"/>
      <point x="733.3725490196078" y="401.8627450980392" type="line"/>
      <point x="773.6470588235294" y="523.1372549019608" type="line"/>
      <point x="496.21568627450984" y="523.1372549019608" type="line"/>
    </contour>
    <contour>
      <point x="517.1960784313726" y="592.7254901960785" type="line"/>
      <point x="794.6274509803922" y="592.7254901960785" type="line"/>
      <point x="834.9019607843137" y="714.0" type="line"/>
      <point x="557.4705882352941" y="714.0" type="line"/>
    </contour>
  </outline>
</glyph>
<glyph name="uni1CC6" format="2">
  <advance width="1301.3529411764707"/>
  <unicode hex="1CC6"/>
  <outline>
    <contour>
      <point x="-22.0" y="0.0" type="line"/>
      <point x="441.5882352941177" y="0.0" type="line"/>
      <point x="528.5490196078431" y="269.1764705882353" type="line"/>
      <point x="620.8039215686274" y="0.0" type="line"/>
      <point x="770.7058823529412" y="0.0" type="line"/>
      <point x="625.6078431372549" y="416.7450980392157" type="line"/>
      <point x="441.37254901960785" y="416.7450980392157" type="line"/>
      <point x="340.3921568627451" y="125.11764705882354" type="line"/>
      <point x="164.68627450980392" y="125.11764705882354" type="line"/>
      <point x="318.5882352941177" y="591.0784313725491" type="line"/>
      <point x="562.7647058823529" y="591.0784313725491" type="line"/>
      <point x="599.843137254902" y="714.0" type="line"/>
      <point x="214.0" y="714.0" type="line"/>
    </contour>
    <contour>
      <point x="819.6078431372549" y="23.980392156862745" type="line"/>
      <point x="1119.0" y="23.980392156862745" type="line"/>
      <point x="1158.1764705882354" y="141.41176470588235" type="line"/>
      <point x="858.7843137254902" y="141.41176470588235" type="line"/>
    </contour>
    <contour>
      <point x="759.0588235294117" y="214.84313725490196" type="line"/>
      <point x="1182.8039215686274" y="214.84313725490196" type="line"/>
      <point x="1221.9803921568628" y="332.27450980392155" type="line"/>
      <point x="798.2352941176471" y="332.27450980392155" type="line"/>
    </contour>
    <contour>
      <point x="701.7058823529412" y="405.70588235294116" type="line"/>
      <point x="1244.3529411764707" y="405.70588235294116" type="line"/>
      <point x="1283.5294117647059" y="523.1372549019608" type="line"/>
      <point x="740.8823529411765" y="523.1372549019608" type="line"/>
    </contour>
    <contour>
      <point x="619.1960784313726" y="596.5686274509803" type="line"/>
      <point x="1311.0196078431372" y="596.5686274509803" type="line"/>
      <point x="1350.1960784313726" y="714.0" type="line"/>
      <point x="658.3725490196078" y="714.0" type="line"/>
    </contour>
  </outline>
</glyph>
<glyph name="uni1CC7" format="2">
  <advance width="1732.2941176470588"/>
  <unicode hex="1CC7"/>
  <outline>
    <contour>
      <point x="331.19607843137254" y="0.0" type="line"/>
      <point x="784.3333333333334" y="0.0" type="line"/>
      <point x="871.1176470588235" y="264.2549019607843" type="line"/>
      <point x="1047.4705882352941" y="0.0" type="line"/>
      <point x="1158.8823529411766" y="0.0" type="line"/>
      <point x="1396.8823529411766" y="714.0" type="line"/>
      <point x="881.7254901960785" y="714.0" type="line"/>
      <point x="828.1960784313726" y="550.5686274509803" type="line"/>
      <point x="971.4117647058823" y="550.5686274509803" type="line"/>
      <point x="987.4117647058823" y="596.5686274509803" type="line"/>
      <point x="1212.9411764705883" y="596.5686274509803" type="line"/>
      <point x="1077.4313725490197" y="195.3921568627451" type="line"/>
      <point x="889.3333333333334" y="474.0" type="line"/>
      <point x="793.6274509803922" y="474.0" type="line"/>
      <point x="676.4509803921569" y="122.92156862745098" type="line"/>
      <point x="516.7843137254902" y="122.92156862745098" type="line"/>
      <point x="671.2352941176471" y="591.0784313725491" type="line"/>
      <point x="753.8039215686274" y="591.0784313725491" type="line"/>
      <point x="792.5294117647059" y="714.0" type="line"/>
      <point x="566.0980392156863" y="714.0" type="line"/>
    </contour>
    <contour>
      <point x="-52.3921568627451" y="23.980392156862745" type="line"/>
      <point x="225.0392156862745" y="23.980392156862745" type="line"/>
      <point x="264.21568627450984" y="141.41176470588235" type="line"/>
      <point x="-13.215686274509803" y="141.41176470588235" type="line"/>
    </contour>
    <contour>
      <point x="10.509803921568627" y="214.84313725490196" type="line"/>
      <point x="287.94117647058823" y="214.84313725490196" type="line"/>
      <point x="327.11764705882354" y="332.27450980392155" type="line"/>
      <point x="49.68627450980392" y="332.27450980392155" type="line"/>
    </contour>
    <contour>
      <point x="74.31372549019608" y="405.70588235294116" type="line"/>
      <point x="351.7450980392157" y="405.70588235294116" type="line"/>
      <point x="390.921568627451" y="523.1372549019608" type="line"/>
      <point x="113.49019607843137" y="523.1372549019608" type="line"/>
    </contour>
    <contour>
      <point x="135.5686274509804" y="596.5686274509803" type="line"/>
      <point x="413.0" y="596.5686274509803" type="line"/>
      <point x="452.1764705882353" y="714.0" type="line"/>
      <point x="174.7450980392157" y="714.0" type="line"/>
    </contour>
    <contour>
      <point x="1277.0196078431372" y="23.980392156862745" type="line"/>
      <point x="1554.450980392157" y="23.980392156862745" type="line"/>
      <point x="1593.6274509803923" y="141.41176470588235" type="line"/>
      <point x="1316.1960784313726" y="141.41176470588235" type="line"/>
    </contour>
    <contour>
      <point x="1339.921568627451" y="214.84313725490196" type="line"/>
      <point x="1617.3529411764705" y="214.84313725490196" type="line"/>
      <point x="1656.5294117647059" y="332.27450980392155" type="line"/>
      <point x="1379.0980392156862" y="332.27450980392155" type="line"/>
    </contour>
    <contour>
      <point x="1403.7254901960785" y="405.70588235294116" type="line"/>
      <point x="1681.1568627450981" y="405.70588235294116" type="line"/>
      <point x="1720.3333333333333" y="523.1372549019608" type="line"/>
      <point x="1442.9019607843138" y="523.1372549019608" type="line"/>
    </contour>
    <contour>
      <point x="1464.9803921568628" y="596.5686274509803" type="line"/>
      <point x="1742.4117647058824" y="596.5686274509803" type="line"/>
      <point x="1781.5882352941176" y="714.0" type="line"/>
      <point x="1504.1568627450981" y="714.0" type="line"/>
    </contour>
  </outline>
</glyph>
<glyph name="uni25CC" format="2">
  <advance width="594.0"/>
  <unicode hex="25CC"/>
  <note>
uni25CC
</note>
  <outline>
    <contour>
      <point x="480.0" y="448.0" type="curve" smooth="yes"/>
      <point x="480.0" y="466.0"/>
      <point x="472.0" y="475.0"/>
      <point x="455.0" y="475.0" type="curve" smooth="yes"/>
      <point x="437.0" y="475.0"/>
      <point x="428.0" y="466.0"/>
      <point x="428.0" y="448.0" type="curve" smooth="yes"/>
      <point x="428.0" y="431.0"/>
      <point x="437.0" y="422.0"/>
      <point x="455.0" y="422.0" type="curve" smooth="yes"/>
      <point x="472.0" y="422.0"/>
      <point x="480.0" y="431.0"/>
    </contour>
    <contour>
      <point x="408.0" y="496.0" type="curve" smooth="yes"/>
      <point x="408.0" y="514.0"/>
      <point x="400.0" y="523.0"/>
      <point x="383.0" y="523.0" type="curve" smooth="yes"/>
      <point x="364.0" y="523.0"/>
      <point x="355.0" y="514.0"/>
      <point x="355.0" y="496.0" type="curve" smooth="yes"/>
      <point x="355.0" y="479.0"/>
      <point x="364.0" y="470.0"/>
      <point x="383.0" y="470.0" type="curve" smooth="yes"/>
      <point x="400.0" y="470.0"/>
      <point x="408.0" y="479.0"/>
    </contour>
    <contour>
      <point x="529.0" y="376.0" type="curve" smooth="yes"/>
      <point x="529.0" y="393.0"/>
      <point x="520.0" y="402.0"/>
      <point x="503.0" y="402.0" type="curve" smooth="yes"/>
      <point x="485.0" y="402.0"/>
      <point x="476.0" y="393.0"/>
      <point x="476.0" y="376.0" type="curve" smooth="yes"/>
      <point x="476.0" y="358.0"/>
      <point x="485.0" y="349.0"/>
      <point x="502.0" y="349.0" type="curve" smooth="yes"/>
      <point x="520.0" y="349.0"/>
      <point x="529.0" y="358.0"/>
    </contour>
    <contour>
      <point x="546.0" y="291.0" type="curve" smooth="yes"/>
      <point x="546.0" y="308.0"/>
      <point x="538.0" y="317.0"/>
      <point x="521.0" y="317.0" type="curve" smooth="yes"/>
      <point x="503.0" y="317.0"/>
      <point x="494.0" y="308.0"/>
      <point x="494.0" y="291.0" type="curve" smooth="yes"/>
      <point x="494.0" y="274.0"/>
      <point x="503.0" y="265.0"/>
      <point x="521.0" y="265.0" type="curve" smooth="yes"/>
      <point x="538.0" y="265.0"/>
      <point x="546.0" y="274.0"/>
    </contour>
    <contour>
      <point x="323.0" y="514.0" type="curve" smooth="yes"/>
      <point x="323.0" y="531.0"/>
      <point x="314.0" y="540.0"/>
      <point x="297.0" y="540.0" type="curve" smooth="yes"/>
      <point x="280.0" y="540.0"/>
      <point x="271.0" y="531.0"/>
      <point x="271.0" y="514.0" type="curve" smooth="yes"/>
      <point x="271.0" y="496.0"/>
      <point x="280.0" y="487.0"/>
      <point x="297.0" y="487.0" type="curve" smooth="yes"/>
      <point x="314.0" y="487.0"/>
      <point x="323.0" y="496.0"/>
    </contour>
    <contour>
      <point x="239.0" y="496.0" type="curve" smooth="yes"/>
      <point x="239.0" y="514.0"/>
      <point x="230.0" y="523.0"/>
      <point x="212.0" y="523.0" type="curve" smooth="yes"/>
      <point x="195.0" y="523.0"/>
      <point x="186.0" y="514.0"/>
      <point x="186.0" y="496.0" type="curve" smooth="yes"/>
      <point x="186.0" y="479.0"/>
      <point x="195.0" y="470.0"/>
      <point x="212.0" y="470.0" type="curve" smooth="yes"/>
      <point x="230.0" y="470.0"/>
      <point x="239.0" y="479.0"/>
    </contour>
    <contour>
      <point x="529.0" y="206.0" type="curve" smooth="yes"/>
      <point x="529.0" y="224.0"/>
      <point x="520.0" y="233.0"/>
      <point x="502.0" y="233.0" type="curve" smooth="yes"/>
      <point x="485.0" y="233.0"/>
      <point x="476.0" y="224.0"/>
      <point x="476.0" y="206.0" type="curve" smooth="yes"/>
      <point x="476.0" y="189.0"/>
      <point x="485.0" y="180.0"/>
      <point x="502.0" y="180.0" type="curve" smooth="yes"/>
      <point x="520.0" y="180.0"/>
      <point x="529.0" y="189.0"/>
    </contour>
    <contour>
      <point x="167.0" y="448.0" type="curve" smooth="yes"/>
      <point x="167.0" y="466.0"/>
      <point x="158.0" y="475.0"/>
      <point x="140.0" y="475.0" type="curve" smooth="yes"/>
      <point x="123.0" y="475.0"/>
      <point x="114.0" y="466.0"/>
      <point x="114.0" y="447.0" type="curve" smooth="yes"/>
      <point x="114.0" y="430.0"/>
      <point x="123.0" y="422.0"/>
      <point x="140.0" y="422.0" type="curve" smooth="yes"/>
      <point x="158.0" y="422.0"/>
      <point x="167.0" y="431.0"/>
    </contour>
    <contour>
      <point x="480.0" y="133.0" type="curve" smooth="yes"/>
      <point x="480.0" y="151.0"/>
      <point x="472.0" y="160.0"/>
      <point x="455.0" y="160.0" type="curve" smooth="yes"/>
      <point x="437.0" y="160.0"/>
      <point x="428.0" y="151.0"/>
      <point x="428.0" y="133.0" type="curve" smooth="yes"/>
      <point x="428.0" y="116.0"/>
      <point x="437.0" y="107.0"/>
      <point x="455.0" y="107.0" type="curve" smooth="yes"/>
      <point x="472.0" y="107.0"/>
      <point x="480.0" y="116.0"/>
    </contour>
    <contour>
      <point x="408.0" y="85.0" type="curve" smooth="yes"/>
      <point x="408.0" y="103.0"/>
      <point x="400.0" y="112.0"/>
      <point x="383.0" y="112.0" type="curve" smooth="yes"/>
      <point x="364.0" y="112.0"/>
      <point x="355.0" y="103.0"/>
      <point x="355.0" y="85.0" type="curve" smooth="yes"/>
      <point x="355.0" y="68.0"/>
      <point x="364.0" y="60.0"/>
      <point x="383.0" y="60.0" type="curve" smooth="yes"/>
      <point x="400.0" y="60.0"/>
      <point x="408.0" y="68.0"/>
    </contour>
    <contour>
      <point x="118.0" y="376.0" type="curve" smooth="yes"/>
      <point x="118.0" y="393.0"/>
      <point x="109.0" y="402.0"/>
      <point x="92.0" y="402.0" type="curve" smooth="yes"/>
      <point x="74.0" y="402.0"/>
      <point x="65.0" y="393.0"/>
      <point x="65.0" y="376.0" type="curve" smooth="yes"/>
      <point x="65.0" y="358.0"/>
      <point x="74.0" y="349.0"/>
      <point x="93.0" y="349.0" type="curve" smooth="yes"/>
      <point x="110.0" y="349.0"/>
      <point x="118.0" y="358.0"/>
    </contour>
    <contour>
      <point x="101.0" y="291.0" type="curve" smooth="yes"/>
      <point x="101.0" y="308.0"/>
      <point x="92.0" y="317.0"/>
      <point x="75.0" y="317.0" type="curve" smooth="yes"/>
      <point x="57.0" y="317.0"/>
      <point x="48.0" y="308.0"/>
      <point x="48.0" y="291.0" type="curve" smooth="yes"/>
      <point x="48.0" y="274.0"/>
      <point x="57.0" y="265.0"/>
      <point x="75.0" y="265.0" type="curve" smooth="yes"/>
      <point x="92.0" y="265.0"/>
      <point x="101.0" y="274.0"/>
    </contour>
    <contour>
      <point x="323.0" y="69.0" type="curve" smooth="yes"/>
      <point x="323.0" y="86.0"/>
      <point x="314.0" y="95.0"/>
      <point x="297.0" y="95.0" type="curve" smooth="yes"/>
      <point x="280.0" y="95.0"/>
      <point x="271.0" y="86.0"/>
      <point x="271.0" y="69.0" type="curve" smooth="yes"/>
      <point x="271.0" y="51.0"/>
      <point x="280.0" y="42.0"/>
      <point x="297.0" y="42.0" type="curve" smooth="yes"/>
      <point x="314.0" y="42.0"/>
      <point x="323.0" y="51.0"/>
    </contour>
    <contour>
      <point x="118.0" y="206.0" type="curve" smooth="yes"/>
      <point x="118.0" y="224.0"/>
      <point x="109.0" y="233.0"/>
      <point x="92.0" y="233.0" type="curve" smooth="yes"/>
      <point x="74.0" y="233.0"/>
      <point x="65.0" y="224.0"/>
      <point x="65.0" y="206.0" type="curve" smooth="yes"/>
      <point x="65.0" y="189.0"/>
      <point x="74.0" y="180.0"/>
      <point x="92.0" y="180.0" type="curve" smooth="yes"/>
      <point x="109.0" y="180.0"/>
      <point x="118.0" y="189.0"/>
    </contour>
    <contour>
      <point x="239.0" y="87.0" type="curve" smooth="yes"/>
      <point x="239.0" y="104.0"/>
      <point x="230.0" y="112.0"/>
      <point x="212.0" y="112.0" type="curve" smooth="yes"/>
      <point x="195.0" y="112.0"/>
      <point x="186.0" y="103.0"/>
      <point x="186.0" y="85.0" type="curve" smooth="yes"/>
      <point x="186.0" y="68.0"/>
      <point x="195.0" y="60.0"/>
      <point x="212.0" y="60.0" type="curve" smooth="yes"/>
      <point x="230.0" y="60.0"/>
      <point x="239.0" y="69.0"/>
    </contour>
    <contour>
      <point x="167.0" y="133.0" type="curve" smooth="yes"/>
      <point x="167.0" y="151.0"/>
      <point x="158.0" y="160.0"/>
      <point x="140.0" y="160.0" type="curve" smooth="yes"/>
      <point x="123.0" y="160.0"/>
      <point x="114.0" y="151.0"/>
      <point x="114.0" y="133.0" type="curve" smooth="yes"/>
      <point x="114.0" y="116.0"/>
      <point x="123.0" y="107.0"/>
      <point x="140.0" y="107.0" type="curve" smooth="yes"/>
      <point x="158.0" y="107.0"/>
      <point x="167.0" y="116.0"/>
    </contour>
  </outline>
</glyph>
<glyph name=".notdef" format="2">
  <advance width="600.0"/>
  <outline>
    <contour>
      <point x="94.0" y="0.0" type="line"/>
      <point x="505.0" y="0.0" type="line"/>
      <point x="505.0" y="714.0" type="line"/>
      <point x="94.0" y="714.0" type="line"/>
    </contour>
    <contour>
      <point x="145.0" y="51.0" type="line"/>
      <point x="145.0" y="663.0" type="line"/>
      <point x="454.0" y="663.0" type="line"/>
      <point x="454.0" y="51.0" type="line"/>
    </contour>
  </outline>
</glyph>
